<svg xmlns="http://www.w3.org/2000/svg" xml:space="preserve" width="547" height="450"><path fill="#D4ECFF" d="m151.675 345.822.711-1.238-53.91-31.041a1.765 1.765 0 0 1-.891-1.544 1.765 1.765 0 0 1 .894-1.543l28.532-16.387a12.648 12.648 0 0 0 6.335-10.942v-93.879c0-3.89-1.919-7.516-5.135-9.703l-4.285-2.915-.803 1.18 4.285 2.915a10.303 10.303 0 0 1 4.511 8.523v93.879c0 3.996-2.152 7.714-5.618 9.703l-28.532 16.387a3.178 3.178 0 0 0-1.611 2.78c0 1.162.6 2.202 1.607 2.784l53.91 31.041z"/><path fill="#FF2C9C" d="M155.243 375.469a1.427 1.427 0 0 0 .724-2.66l-21.323-12.499a9.075 9.075 0 0 0-9.254.039l-17.622 10.529a1.428 1.428 0 1 0 1.464 2.452l17.622-10.529a6.231 6.231 0 0 1 6.345-.028l21.322 12.5c.228.133.476.196.722.196z"/><path fill="#D4ECFF" d="m185.482 442.307 118.649-68.502c4.125-2.381 3.607-6.541-1.155-9.291-4.763-2.75-11.968-3.048-16.092-.667l-118.649 68.502c-4.125 2.381-3.607 6.541 1.155 9.291 4.763 2.75 11.968 3.049 16.092.667zM72.001 261.06a22.138 22.138 0 0 1 2.832-1.354l-.029-.002 5.448-2.415-.411.951a35.189 35.189 0 0 1 12.776-.136l-.254-1.056 6.409 2.84-.038.003c.833.354 1.643.734 2.396 1.17 8.044 4.644 8.044 12.174 0 16.818-8.044 4.644-21.085 4.644-29.129 0s-8.044-12.175 0-16.819z"/><path fill="#5793CE" d="M79.74 265.445c3.769 2.176 9.881 2.176 13.65 0s3.769-5.705 0-7.881-9.881-2.176-13.65 0-3.769 5.705 0 7.881z"/><g fill="#5793CE"><path d="M86.566 263.006a3.281 3.281 0 0 0 3.281-3.281v-41.479h-6.562v41.479a3.28 3.28 0 0 0 3.281 3.281z"/><path d="M84.257 219.752c1.308.755 3.429.755 4.736 0 1.308-.755 1.308-1.979 0-2.735-1.308-.755-3.429-.755-4.736 0-1.307.756-1.308 1.98 0 2.735z"/></g><path fill="#D4ECFF" d="M86.566 219.671a2.66 2.66 0 0 0 2.66-2.66V178.02h-5.32v38.991a2.66 2.66 0 0 0 2.66 2.66z"/><path fill="#396CAA" d="M48.32 198.452v-1.526l-2.157-.312-2.415-1.807c-.391-.292-1.138-.32-1.591-.059l-1.782 1.029-1.766-.255v1.547l.007.001c.009.176.142.349.406.466l5.624 2.505c.445.198 1.076.175 1.473-.055l1.873-1.081c.216-.124.316-.288.317-.454l.011.001z"/><path fill="#5793CE" d="m48.087 196.515-4.339-3.247c-.391-.293-1.138-.32-1.591-.059l-3.237 1.869c-.452.261-.405.693.102.918l5.624 2.505c.445.198 1.076.175 1.473-.055l1.873-1.081c.398-.229.439-.593.095-.85z"/><path fill="#D4ECFF" d="M55.408 203.881c-.621 0-1.242-.143-1.738-.428l-6.743-3.894a.779.779 0 0 1 .78-1.348l6.742 3.893c.5.288 1.415.288 1.918 0l11.206-6.491a.778.778 0 1 1 .778 1.348l-11.206 6.491c-.495.286-1.116.429-1.737.429z"/><radialGradient id="a" cx="364.89" cy="181.552" r="66.836" gradientTransform="matrix(-1 0 0 1 556.736 0)" gradientUnits="userSpaceOnUse"><stop offset="0" style="stop-color:#01c8ef"/><stop offset=".089" style="stop-color:#03bee9"/><stop offset=".239" style="stop-color:#08a5d7"/><stop offset=".429" style="stop-color:#107bbb"/><stop offset=".446" style="stop-color:#1177b8"/><stop offset="1" style="stop-color:#112564"/></radialGradient><path fill="url(#a)" d="m120.24 189.616-10.827-6.294 6.066-2.739 5.19 3.68z"/><path fill="#5793CE" d="M50.713 180.273a14.284 14.284 0 0 0 1.822-1.134l23.071-16.909c4.165-3.053 8.455-3.84 11.77-2.158.086.044.161.104.245.151l.024-.007 31.865 18.487-2.864.953-11.159 5.06-15.181 10.769-11.981 6.358-.544.115c-2.794-2.353-5.921-4.372-7.637-7.802-2.966-5.191-11.226-6.677-16.083-10.885-.49.312-.98.603-1.469.855-1.002-.985-1.272-2.386-1.879-3.853z"/><path fill="#396CAA" d="M40.592 172.649c.494 0 .944.174 1.307.456l.005-.006 31.182 18.049-1.14 4.663-1.169-.558c1.785 2.786 4.524 4.617 7.005 6.707l-3.525.747-30.538-17.769c-.141-.061-.285-.113-.423-.183a7.601 7.601 0 0 1-1.176-.748l-.053-.031.02.001c-2.325-1.795-3.638-4.918-3.638-8.818v-.367c0-1.183.96-2.143 2.143-2.143z"/><path fill="#EAEAEA" d="M83.293 159.212c-1.946.071-4.032.739-6.122 1.981 2.09-1.242 4.176-1.911 6.122-1.981z"/><path fill="#5793CE" d="M69.093 192.601v-.366a2.143 2.143 0 0 1 4.286 0v.366c0 2.865.911 4.969 2.499 5.774 1.795.908 4.524.24 7.299-1.793l23.072-16.907c3.55-2.602 7.187-3.54 10.237-2.725l-19.055-11.055 22.079 12.81-2.863.953-11.159 5.06-15.181 10.769-11.981 6.358-.544.115c-2.794-2.353-5.921-4.372-7.637-7.802a8.98 8.98 0 0 0-1.047-1.437c0-.042-.005-.079-.005-.12z"/><path fill="#D4ECFF" d="M78.337 203.757c2.525.001 5.305-1.027 8.031-3.025l23.072-16.908c2.774-2.032 5.501-2.702 7.299-1.793 1.588.805 2.499 2.909 2.499 5.774a2.143 2.143 0 0 0 4.286 0c0-4.537-1.767-8.035-4.848-9.597-3.314-1.679-7.605-.893-11.77 2.159l-23.072 16.908c-2.775 2.033-5.504 2.701-7.299 1.793-1.588-.805-2.499-2.909-2.499-5.774v-.366a2.143 2.143 0 0 0-4.286 0v.366c0 4.537 1.767 8.034 4.847 9.597 1.146.58 2.408.866 3.74.866z"/><path fill="#173D7A" d="M96.469 241.556s4.345-2.191 7.014 1.072c2.669 3.263 6.483 10.966 6.602 16.171.118 5.205-4.119 4.854-6.638 3.622-2.519-1.232-9.877-11.905-10.322-13.996-.445-2.091.525-4.919 1.233-5.472.709-.554 2.111-1.397 2.111-1.397z"/><path fill="#5793CE" d="m95.521 240.509-.201 4.502a2.553 2.553 0 0 0 1.272 2.342c.759.431 1.862.761 3.352.521 3.273-.526 3.566-1.461 3.8-5.962.234-4.501-8.223-1.403-8.223-1.403z"/><path fill="#173D7A" d="M112.376 232.9s4.345-2.191 7.014 1.072c2.669 3.263 6.483 10.966 6.602 16.171s-4.119 4.854-6.638 3.622c-2.519-1.232-9.877-11.905-10.322-13.996-.445-2.091.525-4.919 1.233-5.472.708-.555 2.111-1.397 2.111-1.397z"/><path fill="#5793CE" d="m111.428 231.853-.201 4.502a2.553 2.553 0 0 0 1.272 2.342c.759.431 1.862.761 3.352.521 3.273-.526 3.566-1.461 3.799-5.962.234-4.501-8.222-1.403-8.222-1.403z"/><path fill="#FDD762" d="M72.654 149.199c1.286-20.926 22.663 3.079 22.663 3.079l14.631 14.34 13.175 14.473a12.986 12.986 0 0 1 3.272 10.433l-5.33 40.582a3.988 3.988 0 0 1-3.999 3.466 13.44 13.44 0 0 1-1.974-.173c-4.754-.74-4.403-5.261-4.403-5.261l.974-37.956-27.668-16.679c-.001.001-12.627-5.377-11.341-26.304z"/><path fill="#FDD762" d="M56.747 157.173c1.286-20.926 22.663 3.079 22.663 3.079l14.631 14.341 13.175 14.473a12.984 12.984 0 0 1 3.272 10.433l-5.33 40.582a3.988 3.988 0 0 1-3.999 3.466 13.58 13.58 0 0 1-1.974-.173c-4.754-.74-4.404-5.261-4.404-5.261l.974-37.956-27.668-16.679c0-.001-12.626-5.379-11.34-26.305z"/><path fill="#FF2C9C" d="M69.394 89.998c-16.206 6.719-15.882 16.299-15.882 16.299s3.174 35.121 2.091 58.577c-.453 9.805 52.097 10.554 44.26-15.606-9.24-30.844-5.777-55.815-10.102-59.581-4.326-3.765-16.175-1.427-20.367.311z"/><ellipse cx="72.274" cy="96.408" fill="#FFC2B0" rx="8.359" ry="6.153" transform="rotate(165.558 72.276 96.406)"/><path fill="#FFF" d="M67.346 102.814c-2.053-.826-3.444-2.292-3.916-4.127-.473-1.837.036-3.792 1.435-5.506 1.343-1.647 3.36-2.883 5.681-3.481 4.877-1.251 9.619.731 10.573 4.43.473 1.837-.036 3.792-1.435 5.506-1.343 1.647-3.36 2.883-5.682 3.481a11.87 11.87 0 0 1-2.958.381c-1.307-.001-2.567-.229-3.698-.684zM70.933 91.2c-2.004.516-3.732 1.568-4.868 2.96-1.08 1.324-1.483 2.794-1.135 4.139v.001c.346 1.346 1.41 2.438 2.994 3.075 1.667.668 3.686.757 5.69.24 2.004-.516 3.732-1.568 4.868-2.96 1.08-1.324 1.483-2.794 1.135-4.139-.58-2.25-3.095-3.65-6.105-3.65a10.42 10.42 0 0 0-2.579.334z"/><path fill="#FFC2B0" d="M75.892 89.267s-.14.65.141 5.786c.088 1.614-5.565 3.123-7.026 1.661-1.461-1.461-.877-2.981-1.228-8.476-.351-5.494 8.113 1.029 8.113 1.029z"/><path fill="#EA9C92" d="M67.778 88.239s1.392 5.095 8.255 7.049l-.104-4.63-8.151-2.419z"/><circle cx="75.509" cy="78.417" r="12.475" fill="#FFC2B0"/><path fill="#EA9C92" d="M72.643 78.875s6.868 2.942 11.624 2.976c4.756.034 3.708-3.949 3.708-3.949l-14.118-2.04-1.214 3.013z"/><path fill="#FDD762" d="M85.685 79.65s-5.983-2.54-11.232-1.481c-1.234.249-2.378.909-3.172 1.885-.26.319-.588.61-.96.695-.931.211-2.454-3.651-4.263-3.739-1.809-.088-3.016 1.193-1.533 3.568s.982 5.033.299 5.414c-.683.381-7.922-5.163-1.536-17.813 6.386-12.65 22.607-5.837 25.13-3.273 0 0 2.658 2.316 4.819.255 0-.001 2.423 18.148-7.552 14.489z"/><path fill="#FFC2B0" d="M62.603 131.957v9.49c0 1.088.458 2.125 1.262 2.857l19.496 17.774-2.215 3.388L55.4 146.794a5.233 5.233 0 0 1-2.132-3.689l-1.74-16.551 11.075 5.403z"/><path fill="#FF2C9C" d="M54.884 101.552s-5.914 8.895-8.118 32.308c0 0 10.103 3.268 15.837 1.413 5.734-1.855-7.719-33.721-7.719-33.721z"/><path fill="#D3008D" d="M63.683 112.798s2.316 12.392 2.447 18.216a3.716 3.716 0 0 1-2.447 3.59v-21.806z"/><path fill="#173D7A" d="m68.741 174.418 4.309-.569 27.815-16.059c.892-.515 2.449-.45 3.479.144l19.709 11.375 2.605-.344v2.594h-.002c.017.342-.178.67-.598.913l-31.522 18.2c-.892.515-2.449.45-3.479-.144L69.592 178.14c-.579-.334-.868-.765-.851-1.17v-2.552z"/><path fill="#396CAA" d="m89.64 164.271 1.976-1.141h21.726l10.711 6.18 2.605-.344v2.594h-.002c.017.342-.178.67-.598.913l-31.522 18.2c-.471.272-1.129.381-1.796.336l-3.1-26.738z"/><path fill="#5793CE" d="m125.503 169.119 1.156-.153v2.594h-.002c.017.342-.178.67-.598.913l-.555.321v-3.675z"/><path fill="#274F89" d="M94.218 190.82c-.845.32-2.054.251-2.956-.184v-4.413h2.956v4.597z"/><path fill="#FFF" d="m94.536 188.081 31.522-18.2c.892-.515.78-1.414-.25-2.009l-21.464-12.388c-1.03-.595-2.587-.659-3.479-.144l-31.522 18.2c-.892.515-.78 1.414.25 2.009l21.465 12.388c1.029.594 2.586.659 3.478.144z"/><path fill="#D4ECFF" d="m95.069 185.322 26.211-15.133c.742-.428.649-1.176-.208-1.67l-11.502-6.468c-.856-.494-2.151-.548-2.893-.12l-26.211 15.133c-.741.428-.648 1.176.208 1.67l11.502 6.468c.857.495 2.152.548 2.893.12z"/><path fill="#FFC2B0" d="m103.125 154.887.326 2.175c.278 1.853.23 3.74-.142 5.577l-.388 1.916a2.695 2.695 0 0 1-2.16 2.117 1.487 1.487 0 0 1-1.744-1.297l-.52-4.65s-1.19 1.559-1.764 1.559c-.574 0 .643-4.657 1.942-7.292 1.3-2.635 4.45-.105 4.45-.105z"/><path fill="#FFC2B0" d="m92.44 120.319 3.382 6.694a13.117 13.117 0 0 1 1.384 5.081l1.469 22.898 4.45-.106 2.02-25.715a9.418 9.418 0 0 0-.115-2.377l-2.307-13.04-10.283 6.565z"/><path fill="#173D7A" d="m95.604 189.829 2.643-3.45 27.795-16.093c.891-.516 1.612-1.898 1.611-3.087l-.024-22.756 1.598-2.086-1.502-.87-.002.002c-.288-.185-.669-.181-1.09.063l-31.5 18.238c-.891.516-1.612 1.898-1.611 3.087l.027 24.783c.001.669.23 1.134.589 1.321l1.466.848z"/><path fill="#396CAA" d="m114.825 176.78 1.975-1.143 10.84-18.829-.011-12.366 1.598-2.086-1.502-.87-.002.002c-.288-.185-.669-.181-1.09.063l-31.5 18.238c-.471.273-.893.788-1.187 1.388l20.879 15.603z"/><path fill="#5793CE" d="m128.518 143.282.709-.926-1.502-.87-.002.002c-.288-.185-.669-.181-1.09.063l-.555.321 2.44 1.41z"/><path fill="#274F89" d="M94.847 159.99c-.7.573-1.242 1.655-1.316 2.653l3.078 1.777 1.475-2.562-3.237-1.868z"/><path fill="#5793CE" d="m96.634 160.658 31.5-18.238c.891-.516 1.615.03 1.616 1.219l.027 24.783c.001 1.189-.72 2.571-1.611 3.087l-31.5 18.238c-.891.516-1.615-.03-1.616-1.219l-.027-24.783c-.002-1.189.72-2.572 1.611-3.087z"/><path fill="#FFC2B0" d="m81.145 165.466.505 1.046a7.01 7.01 0 0 0 2.633 2.919l3.129 1.929c.973.6 2.206.649 3.194.074l.107-.064c.994-.623 1.084-2.051.266-2.892l-3.27-3.362s1.837 1.407 2.352.841c.377-.415-1.782-2.442-3.439-2.509-1.657-.066-3.261-1.368-3.261-1.368l-2.216 3.386z"/><path fill="#FF2C9C" d="M89.436 89.639s11.987 13.042 16.822 25.007c0 0-4.099 7.385-14.132 10.282-10.033 2.898-2.69-35.289-2.69-35.289z"/><path fill="#D3008D" d="m94.383 124.154-1.943-18.768 4.578 17.584a26.09 26.09 0 0 1-2.635 1.184z"/><path fill="#FFF" d="m80.458 87.007 3.221-.885s-1.538 2.419-3.783 3.036-2.594-1.284-2.594-1.284l3.156-.867z"/><path fill="#66AA17" d="M164 79.407 291.842 5.583c4.2-2.425 8.016-2.486 10.901-.665l.006-.029 16.041 9.291-10.757 2.007c.034.551.065 1.104.065 1.686v301.529c0 11.971-7.278 25.878-16.257 31.061L165.795 423.25c1.148 3.601 3.59 11.175 3.59 11.175l-15.686-9.097.004-.001c-3.637-1.875-5.96-6.569-5.96-13.329v-301.53c0-11.971 7.279-25.878 16.257-31.061z"/><path fill="#D4ECFF" d="m43.83 338.257 19.201-11.086 19.2 11.086-19.2 11.085z"/><path fill="#518410" d="M63.031 339.06v-12.491l-22.94-13.245v12.492z"/><path fill="#81C924" d="m63.031 326.569 22.94-13.245v12.492l-22.94 13.244z"/><path fill="#66AA17" d="m40.091 313.324 22.94-13.244 22.94 13.244-22.94 13.245z"/><path fill="#FFF" d="M119.675 169.094c0 1.963 1.378 2.759 3.078 1.777 1.7-.981 3.078-3.368 3.078-5.331 0-1.963-1.378-2.759-3.078-1.777-1.7.981-3.078 3.368-3.078 5.331z"/><path fill="#FF2C9C" d="M152.029 337.023a1.428 1.428 0 0 0 .715-2.666l-53.91-31.041a1.05 1.05 0 0 1-.534-.926c0-.186.053-.646.536-.923l28.532-16.387a13.365 13.365 0 0 0 6.693-11.561v-93.88c0-4.126-2.036-7.972-5.448-10.293l-4.285-2.915a1.43 1.43 0 0 0-1.607 2.363l4.285 2.915a9.58 9.58 0 0 1 4.198 7.93v93.88a10.5 10.5 0 0 1-5.259 9.084L97.412 298.99a3.881 3.881 0 0 0-1.969 3.399c0 1.42.734 2.692 1.965 3.402l53.91 31.041c.225.13.47.191.711.191z"/><path fill="#518410" d="M308.098 319.402c0 11.971-7.278 25.878-16.257 31.061L165.795 423.25c1.148 3.601 3.59 11.174 3.59 11.174l-15.686-9.097.004-.001c-3.637-1.875-5.96-6.569-5.96-13.329V110.468c0-6.245 1.992-13.007 5.162-18.792l155.193 89.601v138.125z"/><path fill="#B45EF4" d="m180.127 433.63 127.842-73.824c8.978-5.184 16.257-19.09 16.257-31.061V27.215c0-11.971-7.278-17.473-16.257-12.29L180.127 88.75c-8.978 5.184-16.257 19.09-16.257 31.061V421.34c0 11.971 7.278 17.473 16.257 12.29z"/><path fill="#D3008D" d="m303.088 109.368 9.895-6.81 3.866-12.68 3.866 8.216 3.524-1.644v6.983l-1.135 1.772 1.135 5.038v4.802l-7.39-.98-8.505 10.948 2.25-12.585z"/><path fill="#FFF" d="m182.508 423.647 122.841-70.937c6.673-3.853 12.083-14.189 12.083-23.087V32.377c0-8.898-5.41-12.987-12.083-9.135L182.508 94.179c-6.673 3.853-12.083 14.189-12.083 23.087v297.246c0 8.898 5.41 12.988 12.083 9.135z"/><path fill="#EDEDED" d="m232.758 332.354 60.298-34.813v-146.58l-28.41 16.402a63.777 63.777 0 0 0-31.888 55.232v109.759z"/><path fill="#D4ECFF" d="m314.616 136.782-.008.012c6.086-3.624 14.541-3.178 23.88 2.214 18.489 10.674 33.53 36.726 33.53 58.075v15.407l-.635.373-60.408 35.537-.915-18.435-.754-7.159-3.203-11.116-.368-1.701-6.868-13.843-5.411-6.758-4.386-5.229-10.686-8.415-.94-.698-5.254-2.261-7.065-1.837h-5.511l-6.162 1.079 61.164-35.245z"/><path fill="#D4ECFF" d="m306.917 279.263-1.958-1.13v-70.189c1.016 1.385 1.493 3.163 1.958 4.969v66.35z"/><path fill="#D4ECFF" d="m245.873 314.433 61.044-35.17-.63-66.444-2.332-6.712-7.065-12.152-8.36-9.915-7.537-6.029-8.148-4.946-14.784-1.695-7.819 4.428-4.369 6.688-1.377 10.268.471 111.065z"/><path fill="#5793CE" d="M314.608 136.794c5.092-3.032 11.846-3.201 19.385-.022l-62.196 35.909-6.671-1.734h-5.511l-6.162 1.079 61.163-35.244-.008.012z"/><path fill="#E9F6FF" d="M332.528 136.193a38.71 38.71 0 0 1 5.961 2.816 49.027 49.027 0 0 1 4.02 2.609l-62.001 35.796-2.122-1.672-.94-.698-5.254-2.261-2.096-.545 62.432-36.045z"/><path fill="#FFF" d="m288.547 183.744-8.435-6.642 61.982-35.785c2.806 1.968 5.51 4.278 8.067 6.854l-61.614 35.573z"/><path fill="#5793CE" d="m243.915 313.302 1.958 1.13V194.666c0-20.101 14.163-28.278 31.572-18.227 17.409 10.051 31.572 34.582 31.572 54.683v16.147l1.958 1.13v-16.147c0-21.348-15.041-47.4-33.53-58.075s-33.53-1.991-33.53 19.358v119.767z"/><path fill="#AEDEED" d="m353.504 185.63 3.436 14.047-1.718 22.694 4.356-2.563 5.574-12.335-4.88-15.591z"/><path fill="#FFF" d="M252.764 275.293c-.661-.382-1.041-1.19-1.041-2.216v-34.928c0-1.708 1.025-3.637 2.332-4.391l44.391-25.629c.704-.409 1.418-.446 2.006-.105.661.381 1.04 1.188 1.04 2.215v34.928c0 1.709-1.025 3.637-2.332 4.391l-44.391 25.629c-.386.223-.774.336-1.144.336a1.71 1.71 0 0 1-.861-.23zm46.396-65.929-44.391 25.631c-.877.505-1.618 1.95-1.618 3.153v34.928c0 .584.176.893.325.979.181.098.464-.04.579-.105l44.391-25.631c.877-.505 1.618-1.95 1.618-3.153v-34.928c0-.583-.176-.891-.326-.979a.306.306 0 0 0-.151-.036c-.16 0-.342.092-.427.141z" opacity=".4"/><path fill="#B2D3EA" d="m285.379 250.981.313-.181c1.157-.668 2.095-2.46 2.095-4.003v-16.645c0-1.543-.938-2.252-2.095-1.584l-.313.18c-1.157.668-2.095 2.46-2.095 4.003v16.645c0 1.544.938 2.253 2.095 1.585zM276.451 256.136l.312-.181c1.157-.668 2.095-2.46 2.095-4.003v-9.742c0-1.543-.938-2.252-2.095-1.584l-.312.18c-1.157.668-2.095 2.46-2.095 4.003v9.742c0 1.543.938 2.253 2.095 1.585z"/><path fill="#396CAA" d="m267.523 261.29.312-.18c1.157-.668 2.095-2.461 2.095-4.003v-23.189c0-1.543-.938-2.252-2.095-1.584l-.312.181c-1.157.668-2.095 2.46-2.095 4.003v23.189c0 1.542.938 2.251 2.095 1.583z"/><path fill="#D4ECFF" d="M366.019 433.711c-14.915 8.611-39.097 8.611-54.012 0s-14.916-22.573-.001-31.184c14.915-8.611 39.097-8.611 54.012 0 14.916 8.611 14.916 22.572.001 31.184z"/><path fill="#173D7A" d="M362.415 406.432c2.661 1.136 4.335 4.103 4.114 7.29-.105 1.504-.286 2.906-.6 3.564-.846 1.777-3.621 4.216-8.05 2.466s-14.265-10.992-14.633-17.041c-.686-11.237 12.163.728 19.169 3.721zM336.393 425.017s1.062 6.479.546 7.666c-.516 1.187-3.598 3.722-8.152 3.174-4.554-.548-17.655-5.065-20.573-13.7-4.523-13.385 25.289 1.005 25.289 1.005l2.89 1.855z"/><path fill="#FDD762" d="m323.591 321.445-1.014 101.139c.106 3.518 2.41 6.489 5.509 7.011.383.065.793.117 1.232.156 3.138.274 4.965-1.071 6.008-2.486.845-1.145 1.289-2.598 1.352-4.083l1.291-43.175 6.446-38.603 8.918 68.322c.143 1.848 1.028 3.556 2.451 4.498.983.651 2.317 1.155 4.066 1.103 2.552-.077 4.325-1.443 5.406-2.662.857-.966 1.309-2.294 1.291-3.658l-3.535-41.108-1.316-52.434-38.105 5.98z"/><path fill="#FFC2B0" d="m336.689 230.914 1.599 9.216s.06 3.144-3.451 4.015c-3.511.871-4.597-1.395-4.597-1.395l-1.588-10.379 8.037-1.457z"/><path fill="#FFC2B0" d="M317.34 225.866c2.492 7.895 10.205 12.477 17.227 10.235 7.022-2.243 10.694-10.461 8.202-18.356-2.492-7.895-10.205-12.477-17.227-10.235-7.023 2.243-10.695 10.461-8.202 18.356z"/><path fill="#983BE9" d="M336.271 240.298c.243-.099 14.896-9.533 20.312.34 8.831 16.099 2.372 34.557 5.523 74.633.527 6.706-9.025 10.792-13.541 13.373-4.018 2.296-8.515 3.701-13.143 3.739-4.579.037-13.359-4.034-13.04-10.02 1.466-27.531-.968-50.736-3.216-73.253 0 0 2.81-3.024 17.105-8.812z"/><path fill="#D8892B" d="m344.416 341.405 8.918 68.323c.143 1.848 1.028 3.556 2.451 4.498.233.154.489.298.761.43-1.851-1.388-7.257-58.735-8.257-65.114-1.001-6.383-3.873-8.137-3.873-8.137z"/><path fill="#FFC2B0" d="m288.761 248.639-12.268-24.349 3.849-2.431 12.714 18.547zM369.675 222.784l-5.968-27.149-4.752.052 1.785 22.516z"/><path fill="#983BE9" d="M319.166 249.11s-13.721 5.412-25.51-9.46c-1.039-1.31-3.172-1.163-3.786.249-1.061 2.437-2.389 6.119-.778 9.576 7.125 15.291 31.435 14.76 37.293 23.331 5.857 8.573-7.219-23.696-7.219-23.696zM345.565 236.915s11.329.871 12.96-8.935c.84-5.049 1.092-8.065 1.139-9.802a1.978 1.978 0 0 1 2.221-1.923c2.713.337 6.914 1.147 7.483 2.965.851 2.715 2.451 16.031-8.739 36.462-7.33 13.385-15.064-18.767-15.064-18.767z"/><path fill="#FFC2B0" d="m363.732 195.702-.108-3.096a6.375 6.375 0 0 0-.925-3.091l-3.138-5.155-.819-1.031a2.384 2.384 0 0 0-3.136-.536l-.722.454a2.964 2.964 0 0 0-1.38 2.699l1.623 4.405-2.052-.398a.73.73 0 0 0-.411 1.392l3.352 1.353 3.044 4.309 4.672-1.305zM276.403 224.445l-1.436-2.745a6.37 6.37 0 0 1-.723-3.145l.181-6.032.202-1.301a2.385 2.385 0 0 1 2.462-2.016l.852.038a2.964 2.964 0 0 1 2.534 1.665l.766 4.632 1.587-1.36a.729.729 0 0 1 1.045 1.006l-2.246 2.832-.581 5.901-4.643.525z"/><path fill="#721BD5" d="M328.113 269.74c1.193 5.438-5.991 46.456 1.997 61.457-3.995-1.618-7.943-4.785-7.727-8.834 1.048-19.688.099-37.159-1.347-53.753-6.831-3.461-17.505-5.525-25.055-11.053 8.094 2.984 31.067 7.329 32.132 12.183z"/><path fill="#FFF" d="m341.54 237.695-2.034-2.09s-3.347 3.42-6.035 4.013c0 0-3.236.917-4.818.996l-1.31 3.611s10.657-.763 14.197-6.53z"/><path fill="#173D7A" d="M326.897 226.111c-.562-.01-1.083-.265-1.403-.727-.557-.805-.205-4.508-1.918-5.119-2.68-.956-9.036 2.397-9.715-7.269-.353-5.024 2.092-6.359 2.081-9.111 0 0-.212 1.38 12.715.521 12.927-.859 17.13 10.62 17.436 16.088.306 5.467-2.34 14.457-11.175 15.691-1.465.205-7.618-4.743-7.459-5.392.159-.649 2.481-.612 2.146-2.501-.28-1.574-1.238-2.154-2.708-2.181z"/><path fill="#EDEDED" d="m260.582 109.363 39.06-22.551c1.736-1.002 3.143-3.691 3.143-6.005V51.764c0-2.314-1.407-3.378-3.143-2.376l-39.06 22.551c-1.736 1.002-3.143 3.69-3.143 6.005v29.043c.001 2.314 1.408 3.378 3.143 2.376z"/><path fill="#721BD5" d="m264.448 63.288 39.06-22.551c.773-.446 1.472-.463 2.019-.162a.587.587 0 0 0-.003-.025l3.789 2.189s-1.678.612-2.662.973v28.444c0 2.314-1.407 5.003-3.143 6.005l-37.334 21.554v3.338l-3.828-2.204.021-.007c-.646-.394-1.062-1.26-1.062-2.505V69.293c0-2.315 1.407-5.003 3.143-6.005z"/><path fill="#983BE9" d="m268.306 102.936 39.06-22.551c1.736-1.002 3.143-3.691 3.143-6.005V45.337c0-2.314-1.407-3.378-3.143-2.376l-39.06 22.551c-1.736 1.002-3.143 3.69-3.143 6.005v29.043c0 2.314 1.407 3.378 3.143 2.376z"/><path fill="#FFF" d="m268.306 65.512 39.06-22.551c.987-.57 1.857-.453 2.433.163-.42-.035-.886.064-1.387.353l-39.06 22.552c-1.736 1.002-3.143 3.69-3.143 6.004v29.043c0 .999.273 1.746.71 2.213-1.037-.086-1.756-1.082-1.756-2.729V71.517c0-2.315 1.407-5.003 3.143-6.005z"/><g fill="#FFF"><path d="M294.23 70.376c0 1.681 1.18 2.362 2.635 1.521s2.635-2.884 2.635-4.565c0-1.681-1.18-2.362-2.635-1.521-1.455.841-2.635 2.885-2.635 4.565zM286.246 74.986c0 1.681 1.18 2.362 2.635 1.522 1.456-.84 2.635-2.884 2.635-4.565 0-1.681-1.18-2.362-2.635-1.521-1.455.84-2.635 2.883-2.635 4.564zM278.262 79.595c0 1.681 1.18 2.362 2.635 1.521 1.455-.84 2.635-2.884 2.635-4.565 0-1.681-1.18-2.362-2.635-1.522-1.455.842-2.635 2.886-2.635 4.566z"/></g><path fill="#EDEDED" d="m182.855 262.673 39.06-22.551c1.736-1.002 3.143-3.69 3.143-6.005v-65.363c0-2.314-1.407-3.378-3.143-2.376l-39.06 22.551c-1.736 1.002-3.143 3.69-3.143 6.005v65.363c.001 2.314 1.408 3.378 3.143 2.376z"/><path fill="#5793CE" d="m186.72 180.279 39.06-22.551c.773-.446 1.472-.463 2.019-.162a.587.587 0 0 0-.003-.025l3.789 2.189s-1.678.612-2.662.973v64.764c0 2.314-1.407 5.003-3.143 6.005l-37.334 21.554v3.338l-3.828-2.204.021-.007c-.646-.394-1.062-1.26-1.062-2.505v-65.363c.001-2.316 1.408-5.004 3.143-6.006z"/><path fill="#D4ECFF" d="m190.579 256.246 39.06-22.551c1.736-1.002 3.143-3.69 3.143-6.005v-65.363c0-2.314-1.407-3.378-3.143-2.376l-39.06 22.551c-1.736 1.002-3.143 3.69-3.143 6.005v65.363c0 2.315 1.407 3.378 3.143 2.376z"/><path fill="#FFF" d="m190.579 182.502 39.06-22.551c.987-.57 1.857-.453 2.433.163-.42-.035-.886.064-1.387.353l-39.06 22.552c-1.736 1.002-3.143 3.69-3.143 6.004v65.362c0 .999.273 1.746.71 2.213-1.037-.086-1.756-1.082-1.756-2.729v-65.363c0-2.313 1.407-5.002 3.143-6.004z"/><path fill="#EDEDED" d="m182.855 350.983 39.06-22.551c1.736-1.002 3.143-3.69 3.143-6.005v-65.363c0-2.314-1.407-3.378-3.143-2.376l-39.06 22.551c-1.736 1.002-3.143 3.69-3.143 6.005v65.363c.001 2.315 1.408 3.378 3.143 2.376z"/><path fill="#721BD5" d="m186.72 268.589 39.06-22.551c.773-.446 1.472-.463 2.019-.162a.587.587 0 0 0-.003-.025l3.789 2.189s-1.678.611-2.662.973v64.764c0 2.314-1.407 5.003-3.143 6.005l-37.334 21.554v3.338l-3.828-2.204.021-.007c-.646-.394-1.062-1.26-1.062-2.505v-65.363c.001-2.316 1.408-5.004 3.143-6.006z"/><path fill="#983BE9" d="m190.579 344.556 39.06-22.551c1.736-1.002 3.143-3.69 3.143-6.005v-65.363c0-2.314-1.407-3.378-3.143-2.376l-39.06 22.551c-1.736 1.002-3.143 3.69-3.143 6.005v65.363c0 2.315 1.407 3.378 3.143 2.376z"/><path fill="#FFF" d="m190.579 270.813 39.06-22.551c.987-.57 1.857-.453 2.433.163-.42-.035-.886.064-1.387.353l-39.06 22.552c-1.736 1.002-3.143 3.69-3.143 6.004v65.363c0 .999.273 1.746.71 2.213-1.037-.086-1.756-1.082-1.756-2.729v-65.362c0-2.316 1.407-5.004 3.143-6.006z"/><path fill="#D4ECFF" d="m444.969 379.381-34.329-19.344c-1.525-.859-4.173-.722-5.913.307l-21.84 12.916c-1.74 1.029-1.914 2.56-.389 3.42l34.329 19.344c1.525.86 4.173.722 5.913-.307l21.84-12.916c1.74-1.03 1.914-2.561.389-3.42z"/><path fill="#66AA17" d="m417.323 386.299-39.293-22.141c-.778-.438-1.148-1.031-1.167-1.655l-.02.015-.045-4.376s1.38 1.133 2.193 1.797l24.483-14.479c1.992-1.178 5.022-1.336 6.768-.351l37.557 21.163 2.873-1.699.051 4.417-.017-.014c-.01.757-.544 1.555-1.616 2.189l-24.999 14.784c-1.992 1.176-5.022 1.334-6.768.35z"/><path fill="#66AA17" d="m449.486 362.796-39.293-22.141c-1.746-.984-4.776-.826-6.768.352l-24.999 14.784c-1.992 1.178-2.191 2.931-.445 3.914l39.293 22.141c1.746.984 4.776.827 6.768-.352l24.999-14.784c1.992-1.178 2.191-2.93.445-3.914z"/><path fill="#FFF" d="m417.273 381.846-39.293-22.141c-.993-.559-1.335-1.367-1.098-2.177.184.379.506.73 1.01 1.014l39.294 22.141c1.746.984 4.776.826 6.768-.352l24.999-14.784c.86-.508 1.364-1.123 1.544-1.738.454.936-.037 2.062-1.455 2.901l-24.999 14.784c-1.994 1.178-5.024 1.336-6.77.352z"/><g fill="#FFF"><path d="M408.264 357.055c1.447-.855 1.432-2.218-.032-3.043-1.464-.825-3.824-.8-5.271.055-1.447.855-1.432 2.218.032 3.043 1.465.825 3.825.801 5.271-.055zM416.296 361.581c1.447-.855 1.432-2.218-.032-3.043-1.464-.825-3.824-.801-5.271.055-1.447.855-1.432 2.218.032 3.043s3.824.801 5.271-.055zM424.327 366.107c1.447-.855 1.432-2.218-.032-3.043-1.464-.825-3.824-.801-5.271.055-1.447.855-1.432 2.218.032 3.043 1.465.825 3.825.8 5.271-.055z"/></g><path fill="#D4ECFF" d="M458.342 343.962c10.727 6.193 28.12 6.193 38.848 0 10.728-6.194 10.728-16.235.001-22.429-10.727-6.193-28.12-6.193-38.848 0-10.728 6.194-10.728 16.235-.001 22.429z"/><path fill="#6614CF" d="M493.294 141.024s-.706 14.56-1.814 24.345c-1.108 9.785-24.674-7.516-24.674-7.516v-11.141l26.488-5.688z"/><path fill="#173D7A" d="M480.742 322.18c-.354.885-6.46 8.318-12.566 10.177-2.655.808-4.44.913-5.61.774-1.174-.14-1.899-1.35-1.503-2.464 1.051-2.958 4.063-9.119 11.714-12.912 10.355-5.133 7.965 4.425 7.965 4.425zM482.778 325.035s-2.301 5.398-3.009 9.911c-.432 2.753 1.079 6.329 2.323 8.7.772 1.471 2.729 1.802 3.959.685 1.995-1.811 4.536-4.956 4.956-9.473.708-7.61 0-8.938 0-8.938l-8.229-.885z"/><path fill="#FDD762" d="M497.487 233.052s.797 9.6 0 20.219-3.647 60.281-4.178 72.227c0 0 .266 3.617-6.737 2.821-7.002-.796-6.438-4.812-6.438-4.812s-9.834-.133-10.143-5.929c-.31-5.796-10.072-69.216-10.072-92.017l37.568 7.491z"/><path fill="#FFC2B0" d="m456.281 183.414-4.818 7.462-16.561 20.003s.569 1.856 2.631 2.342c1.611.38 15.539-12.91 21.555-18.741a4.62 4.62 0 0 0 .635-5.87l-3.442-5.196z"/><path fill="#8A2AE3" d="M465.681 152.785s-7.654-.198-10.318 10.863c-2.664 11.061-4.748 24.91-2.431 26.061 6.956 3.455 11.357-.588 11.357-.588l1.392-36.336z"/><path fill="#983BE9" d="M463.39 153.255a6.261 6.261 0 0 1 4.131-.227c6.52 1.873 31.036 9.067 35.077 12.521 4.668 3.99-7.001 26.412-6.833 33.763.168 7.351.997 16.018 1.646 24.009.649 7.992 1.529 12.373-5.008 15.771-6.537 3.397-17.697 3.555-26.051-2.811s-6.838-10.721-6.491-15.343c.348-4.621 3.192-24.608 2.946-30.282 0 0-2.943-2.168-5.124-5.887s1.671-10.555 3.27-14.999-.902-9.526-.407-13.152c.255-1.866 1.447-2.78 2.844-3.363z"/><ellipse cx="480.438" cy="162.079" fill="#FFF" rx="9.286" ry="7.371" transform="rotate(-172.703 480.434 162.091)"/><ellipse cx="480.438" cy="162.079" fill="#FFC2B0" rx="6.637" ry="5.269" transform="rotate(-172.703 480.44 162.068)"/><path fill="#FFC2B0" d="M477.468 151.76s4.425-3.64 5.294-1.796c.869 1.844 1.586 9.754 1.586 9.754l-8.789 2.361 1.334-8.015c.001-.001-1.759-1.492.575-2.304z"/><circle cx="476.832" cy="142.317" r="13.122" fill="#FFC2B0"/><path fill="#EA9C92" d="M483.376 152.257c.078.413.153.856.224 1.309-.883 4.565-7.715 6.564-7.715 6.564l1.009-6.066s-.828-.702-.594-1.405c2.7-.853 6.103-1.608 7.076-.402z"/><circle cx="476.832" cy="142.317" r="13.122" fill="#FFC2B0"/><path fill="#FFC2B0" d="m509.164 197.863-1.469 35.115-5.134.53-3.341-31.612z"/><path fill="#8A2AE3" d="M492.293 194.928c.277-1.223 2.525-2.228 2.868-3.822 1.763-8.18 2.187-20.243 2.187-20.243l1.434 16.478c-1.655 4.887-3.077 9.372-3.017 11.972.099 4.315.427 9.084.811 13.903l-.001.015c0-.001-5.981-10.805-4.282-18.303z"/><path fill="#B45EF4" d="M501.617 164.829s4.105 1.569 6.428 14.178c2.324 12.609 4.061 25.24-.081 26.867-4.142 1.628-7.603 2.852-8.821-.521-1.218-3.373-1.972-19.623-2.125-25.467-.152-5.844-.375-13.902 4.599-15.057z"/><path fill="#FFC2B0" d="M436.131 209.418s-2.223.817-3.83 2.567c-1.318 1.436-2.041 2.654-2.617 3.513-1.279 1.907-2.357 6.03-1.578 6.544.779.514 5.239-6.903 5.958-5.178.719 1.725-.006 3.32.916 3.346.922.026 4.126-7.455 6.647-9.775 2.521-2.319-5.496-1.017-5.496-1.017z"/><path fill="#D8892B" d="M480.134 323.507s-1.219-.018-2.81-.291l-1.925-77.197 4.735 77.488z"/><path fill="#983BE9" d="m487.565 281.808 2.731-3.566 28.726-16.632c.921-.533 1.666-1.962 1.665-3.19l-.025-23.519 1.652-2.156-1.552-.899-.002.002c-.297-.191-.692-.187-1.126.065l-32.555 18.848c-.921.533-1.666 1.962-1.665 3.19l.027 25.613c.001.691.238 1.172.609 1.366l1.515.878z"/><path fill="#D29FFF" d="m507.43 268.322 2.041-1.182 11.203-19.459-.012-12.78 1.652-2.156-1.552-.899-.002.002c-.297-.191-.692-.187-1.126.065l-32.555 18.848c-.487.282-.923.815-1.227 1.435l21.578 16.126z"/><path fill="#D29FFF" d="m521.581 233.702.733-.957-1.552-.899-.002.002c-.297-.191-.692-.187-1.126.065l-.574.332 2.521 1.457z"/><path fill="#983BE9" d="M486.783 250.97c-.723.592-1.284 1.71-1.36 2.742l3.181 1.837 1.524-2.648-3.345-1.931z"/><path fill="#B45EF4" d="m488.629 251.66 32.555-18.849c.921-.533 1.669.031 1.67 1.26l.027 25.613c.002 1.229-.744 2.657-1.665 3.19l-32.555 18.849c-.921.533-1.669-.031-1.67-1.26l-.027-25.613c-.001-1.229.744-2.657 1.665-3.19z"/><path fill="#FFF" d="m495.317 270.03 1.55-.895v-13.321l-1.55.895zM498.939 267.938l1.551-.895v-13.321l-1.551.895zM502.562 265.847l1.55-.895v-13.321l-1.55.895z"/><path fill="#FFC2B0" d="M507.654 232.685s1.357 8.196 1.153 10.822c-.204 2.625-1.609 6.955-2.676 6.864-1.066-.092-.035-10.557-1.908-9.515-1.873 1.042-2.07 2.83-2.918 2.199-.848-.632 1.479-9.577.858-13.456-.62-3.879 5.491 3.086 5.491 3.086z"/><path fill="#EA9C92" d="M471.792 143.462c-6.583 2.338-7.864.912-7.927.835-.06-.397-.109-.798-.133-1.207a13.07 13.07 0 0 1 .438-4.193l17.078-2.306c0 .001-2.696 4.47-9.456 6.871z"/><path fill="#6614CF" d="M463.26 130.017c1.551-1.33 7.15-7.905 17.178-6.353 6.268.97 11.551 5.245 12.723 14.999.79 6.572-1.622 13.045-6.065 17.83-.241-.112-.49-.214-.713-.361-2.512-1.653-2.783-2.562-2.782-2.57l-.555-4.977c.018-.706.546-1.335 1.251-1.379.545-.034 1.207-.296 1.838-1.12 1.441-1.884.776-4.82-2.105-4.931-1.505-.058-2.088-.872-2.301-1.636a1.178 1.178 0 0 0-1.537-.8c-3.277 1.186-11.353 3.743-16.551 2.27-6.651-1.885-1.933-9.642-.381-10.972z"/><path fill="#FFF" d="m470.738 149.39-4.014-1.103s1.917 3.014 4.714 3.783c2.798.769 3.233-1.6 3.233-1.6l-3.933-1.08z"/><path fill="#D29FFF" d="m500.829 242.801 3.421-1.959-1.285 2.098-1.73.638z"/><path fill="#518410" d="m425.335 248.398-39.198-22.309c-.776-.441-1.143-1.036-1.16-1.66l-.02.015-.026-4.376s1.375 1.139 2.185 1.806l24.545-14.374c1.997-1.17 5.028-1.314 6.77-.323l37.466 21.323 2.88-1.687.032 4.417-.017-.014c-.014.757-.551 1.553-1.625 2.182l-25.062 14.677c-1.997 1.17-5.028 1.314-6.77.323z"/><path fill="#66AA17" d="M457.598 225.033 418.4 202.724c-1.742-.991-4.773-.847-6.77.323l-25.062 14.677c-1.997 1.17-2.204 2.921-.462 3.913l39.198 22.309c1.742.991 4.773.847 6.77-.322l25.062-14.677c1.998-1.171 2.204-2.923.462-3.914z"/><path fill="#FFF" d="m425.305 243.945-39.198-22.309c-.99-.564-1.329-1.373-1.089-2.182.182.38.503.733 1.005 1.018l39.199 22.309c1.742.991 4.773.847 6.769-.322l25.062-14.677c.862-.505 1.369-1.117 1.551-1.731.45.938-.046 2.062-1.467 2.895l-25.062 14.677c-1.998 1.169-5.029 1.313-6.77.322z"/><g fill="#FFF"><path d="M416.402 219.116c1.45-.849 1.442-2.212-.019-3.043-1.461-.831-3.82-.817-5.271.033-1.45.849-1.442 2.212.019 3.043 1.461.831 3.82.817 5.271-.033zM424.414 223.676c1.45-.849 1.442-2.212-.019-3.043-1.461-.831-3.82-.817-5.271.033-1.45.849-1.442 2.212.019 3.043 1.461.831 3.821.816 5.271-.033zM432.426 228.236c1.45-.849 1.442-2.212-.019-3.043-1.461-.831-3.82-.817-5.271.033-1.45.849-1.442 2.212.019 3.043 1.461.831 3.821.816 5.271-.033z"/></g><g fill="#D3008D"><path d="M204.41 279.671c0 3.634 2.551 5.107 5.698 3.29 3.147-1.817 5.698-6.235 5.698-9.869 0-3.634-2.551-5.106-5.698-3.29-3.146 1.817-5.698 6.235-5.698 9.869zM202.034 289.942c.007-.056.016-.112.025-.168.243-1.531 1.692-2.875 2.648-2.534 1.477.526 3.355.269 5.402-.913s3.925-3.093 5.402-5.324c.955-1.444 2.404-1.773 2.648-.523l.025.14 2.703 17.163-21.553 12.444 2.7-20.285z"/></g><g fill="#FFF"><path d="M204.41 279.671c0 3.634 2.551 5.107 5.698 3.29 3.147-1.817 5.698-6.235 5.698-9.869 0-3.634-2.551-5.106-5.698-3.29-3.146 1.817-5.698 6.235-5.698 9.869zM202.034 289.942c.007-.056.016-.112.025-.168.243-1.531 1.692-2.875 2.648-2.534 1.477.526 3.355.269 5.402-.913s3.925-3.093 5.402-5.324c.955-1.444 2.404-1.773 2.648-.523l.025.14 2.703 17.163-21.553 12.444 2.7-20.285z"/></g><g fill="#FFF"><path d="m197.806 323.287 26.167-15.108v-1.886l-26.167 15.108zM205.707 326.965l18.266-10.546v-1.886l-18.266 10.546zM208.171 321.423l15.802-9.124v-1.886l-15.802 9.124zM197.806 327.407l7.901-4.562v-1.886l-7.901 4.562z"/></g><g fill="#5793CE"><path d="m197.746 197.263 26.167-15.107v-1.886l-26.167 15.108zM205.647 200.942l18.266-10.546v-1.886l-18.266 10.546zM208.111 195.4l15.802-9.124v-1.886l-15.802 9.123zM197.746 201.384l7.901-4.562v-1.886l-7.901 4.562z"/></g><g fill="#5793CE"><path d="m197.746 213.178 26.167-15.107v-1.887l-26.167 15.108zM205.647 216.857l18.266-10.546v-1.886l-18.266 10.545zM208.111 211.314l15.802-9.123v-1.886l-15.802 9.123zM197.746 217.298l7.901-4.562v-1.886l-7.901 4.562z"/></g><g fill="#5793CE"><path d="m197.746 229.092 26.167-15.107v-1.886l-26.167 15.108zM205.647 232.771l18.266-10.546v-1.886l-18.266 10.546zM208.111 227.229l15.802-9.124v-1.886l-15.802 9.123zM197.746 233.213l7.901-4.562v-1.886l-7.901 4.562z"/></g><g fill="#FFF"><path d="m280.205 273.732 18.666-10.777v-1.742l-18.666 10.776zM268.636 280.411l7.971-4.602v-1.742l-7.971 4.602zM279.561 277.897l7.972-4.602v-1.743l-7.972 4.603zM262.297 287.865l14.31-8.263v-1.742l-14.31 8.262zM252.503 297.313l21.164-12.219v-1.743l-21.164 12.22zM257.233 286.994l7.972-4.602v-1.742l-7.972 4.602zM290.899 271.351l7.972-4.602v-1.742l-7.972 4.602zM277.085 283.12l21.824-12.6v-1.742l-21.824 12.6zM285.488 282.063l13.166-7.602v-1.742l-13.166 7.601z"/></g><path fill="#FDD762" d="M91.796 373.93a1.43 1.43 0 0 0 .729-2.659l-55.316-32.688a.992.992 0 0 1-.496-.865c0-.173.046-.603.49-.869l15.095-9.057a1.43 1.43 0 0 0 .49-1.96 1.427 1.427 0 0 0-1.96-.489L35.733 334.4a3.831 3.831 0 0 0-1.876 3.328 3.835 3.835 0 0 0 1.9 3.315l55.316 32.688c.226.135.476.199.723.199z"/><path fill="#D4ECFF" d="m80.98 398.973 19.201-11.085 19.201 11.085-19.201 11.086z"/><path fill="#D3008D" d="M100.181 399.776v-12.491l-22.94-13.244v12.491zM100.181 387.285l22.94-13.244v12.491l-22.94 13.244z"/><path fill="#FF2C9C" d="m77.241 374.041 22.94-13.245 22.94 13.245-22.94 13.244z"/><path fill="#EDEDED" d="m285.309 107.933-3.866 12.679-9.896 6.81 7.506 3.061-2.249 12.584 8.505-10.948 8.505 1.128-2.25-9.987 7.506-11.728-9.896 4.617zM253.768 125.987l-3.866 12.68-9.895 6.809 7.506 3.06-2.25 12.585 8.505-10.948 8.505 1.127-2.25-9.986 7.506-11.728-9.895 4.617zM303.088 109.368l9.895-6.81 3.866-12.68.583 1.24v23.024l-.583-.077-8.505 10.948 2.25-12.585z"/><path fill="#E8A200" d="m386.568 45.438-3.866 12.68-9.895 6.809 7.506 3.061-2.25 12.584 8.505-10.948 8.505 1.128-2.25-9.987 7.507-11.728-9.896 4.617z"/><path fill="#F9BF30" d="m404.947 51.688-4.618-2.651-7.132 3.327s.025 4.795 0 4.91c-.025.114 2.94.257 3.139.257.201-.001 8.611-5.843 8.611-5.843z"/><path fill="#E8A200" d="m378.063 80.572 4.618 2.651 2.25-12.585s-2.238-2.362-2.228-2.362c.01 0-2.517.427-2.517.427l-2.123 11.869z"/><path fill="#FDD762" d="m391.186 48.088-3.866 12.68-9.896 6.81 7.507 3.06-2.25 12.585 8.505-10.948 8.505 1.127-2.25-9.986 7.506-11.728-9.895 4.616z"/><path fill="#FFF" d="m383.583 82.061 2.119-11.848-6.846-2.79 9.049-6.228 3.416-11.21 3.4 7.227 9.535-4.448.689-1.077-9.895 4.617-3.866-8.216-3.866 12.68-9.895 6.81 7.506 3.06-2.25 12.585.904-1.162z"/><path fill="#E8A200" d="m391.186 48.088-4.618-2.65-3.866 12.68 4.618 2.65z"/><path fill="#F9BF30" d="m372.807 64.927 4.617 2.651 9.896-6.81-4.618-2.65z"/><path fill="#FFF" d="m387.09 61.087.703-.406-4.987-2.902-.104.339-.328.225z"/><path fill="#E8A200" d="m355.028 63.492-3.866 12.68-9.896 6.809 7.507 3.061-2.25 12.584 8.505-10.948 8.505 1.128-2.25-9.987 7.506-11.728-9.895 4.617z"/><path fill="#F9BF30" d="m373.407 69.742-4.618-2.651-7.132 3.327s.025 4.795 0 4.91c-.025.114 2.94.257 3.139.257s8.611-5.843 8.611-5.843z"/><path fill="#E8A200" d="m346.523 98.626 4.617 2.651 2.25-12.585s-2.238-2.362-2.228-2.362c.01 0-2.517.427-2.517.427l-2.122 11.869z"/><path fill="#FDD762" d="m359.645 66.143-3.865 12.679-9.896 6.81 7.506 3.06-2.25 12.585 8.505-10.948 8.505 1.127-2.25-9.986 7.507-11.728-9.896 4.616z"/><path fill="#FFF" d="m352.043 100.115 2.119-11.848-6.846-2.79 9.049-6.228 3.417-11.21 3.4 7.227 9.535-4.448.689-1.077-9.896 4.617-3.866-8.216-3.866 12.68-9.896 6.81 7.506 3.06-2.25 12.585.905-1.162z"/><path fill="#E8A200" d="m359.645 66.143-4.617-2.651-3.866 12.68 4.618 2.65z"/><path fill="#F9BF30" d="m341.266 82.981 4.618 2.651 9.896-6.81-4.618-2.65z"/><path fill="#FFF" d="m355.549 79.141.704-.406-4.988-2.902-.103.339-.328.225z"/><path fill="#E8A200" d="m323.487 81.546-3.866 12.68-9.895 6.809 7.506 3.061-2.25 12.584 8.505-10.948 8.505 1.128-2.25-9.987 7.507-11.728-9.896 4.617z"/><path fill="#F9BF30" d="m341.866 87.796-4.618-2.651-7.132 3.327s.025 4.796 0 4.91 2.94.257 3.139.257c.2-.001 8.611-5.843 8.611-5.843z"/><path fill="#E8A200" d="m314.982 116.68 4.618 2.651 2.25-12.585s-2.238-2.362-2.228-2.362c.01 0-2.517.427-2.517.427l-2.123 11.869z"/><path fill="#FDD762" d="m328.105 84.197-3.866 12.679-9.896 6.81 7.507 3.061-2.25 12.584 8.505-10.948 8.505 1.128-2.25-9.987 7.506-11.728-9.895 4.616z"/><path fill="#FFF" d="m320.502 118.17 2.119-11.848-6.846-2.79 9.049-6.228 3.417-11.21 3.4 7.227 9.535-4.448.69-1.077-9.896 4.617-3.866-8.216-3.866 12.68-9.896 6.81 7.506 3.06-2.25 12.585.904-1.162z"/><path fill="#E8A200" d="m328.105 84.197-4.618-2.651-3.866 12.68 4.618 2.65z"/><path fill="#F9BF30" d="m309.726 101.035 4.617 2.651 9.896-6.81-4.618-2.65z"/><path fill="#FFF" d="m324.009 97.195.703-.406-4.987-2.902-.104.339-.328.225z"/><path fill="#E8A200" d="m291.947 99.6-3.866 12.68-9.896 6.81 7.507 3.06-2.25 12.584 8.505-10.948 8.505 1.128-2.25-9.987 7.506-11.728-9.895 4.617z"/><path fill="#F9BF30" d="m310.326 105.85-4.618-2.651-7.132 3.327s.025 4.796 0 4.91c-.025.114 2.94.257 3.139.257.2-.001 8.611-5.843 8.611-5.843z"/><path fill="#E8A200" d="m283.442 134.734 4.618 2.651 2.25-12.585s-2.238-2.362-2.228-2.362c.01 0-2.517.427-2.517.427l-2.123 11.869z"/><path fill="#FDD762" d="m296.564 102.251-3.866 12.679-9.895 6.81 7.506 3.061-2.25 12.584 8.505-10.948 8.505 1.128-2.25-9.987 7.507-11.728-9.896 4.617z"/><path fill="#FFF" d="m288.962 136.224 2.119-11.848-6.846-2.79 9.049-6.228 3.416-11.21 3.4 7.227 9.535-4.448.689-1.077-9.895 4.617-3.866-8.216-3.866 12.68-9.895 6.81 7.506 3.06-2.25 12.585.904-1.162z"/><path fill="#E8A200" d="m296.564 102.251-4.617-2.651-3.866 12.68 4.617 2.65z"/><path fill="#F9BF30" d="m278.185 119.09 4.618 2.65 9.895-6.81-4.617-2.65z"/><path fill="#FFF" d="m292.468 115.249.704-.406-4.988-2.902-.103.339-.328.225z"/><path fill="#E8A200" d="m260.406 117.654-3.866 12.68-9.895 6.81 7.506 3.06-2.25 12.584 8.505-10.948 8.505 1.128-2.25-9.987 7.507-11.728-9.896 4.617z"/><path fill="#F9BF30" d="m278.785 123.904-4.618-2.651-7.132 3.327s.025 4.795 0 4.909c-.025.114 2.94.257 3.139.257.2.001 8.611-5.842 8.611-5.842z"/><path fill="#E8A200" d="m251.901 152.788 4.618 2.651 2.25-12.585s-2.238-2.362-2.228-2.362c.01 0-2.517.427-2.517.427l-2.123 11.869z"/><path fill="#FDD762" d="m265.024 120.305-3.866 12.68-9.896 6.81 7.507 3.06-2.25 12.584 8.505-10.948 8.505 1.128-2.25-9.987 7.506-11.728-9.895 4.617z"/><path fill="#FFF" d="m257.421 154.278 2.119-11.848-6.846-2.79 9.05-6.228 3.417-11.21 3.4 7.227 9.535-4.448.689-1.077-9.896 4.617-3.866-8.216-3.866 12.68-9.896 6.81 7.506 3.06-2.25 12.585.904-1.162z"/><path fill="#E8A200" d="m265.024 120.305-4.618-2.651-3.866 12.68 4.618 2.651z"/><path fill="#F9BF30" d="m246.645 137.144 4.617 2.651 9.896-6.81-4.618-2.651z"/><path fill="#FFF" d="m260.927 133.303.704-.406-4.987-2.902-.104.339-.328.225z"/></svg>