<svg width="500" height="153" viewBox="0 0 500 153" fill="none" xmlns="http://www.w3.org/2000/svg">
<g clip-path="url(#clip0_231_3960)">
<path d="M400.24 89.57C399.46 92.62 397.84 95.21 395.7 97.42C394.55 98.61 394.18 99.72 394.83 101.26C395.3 102.38 395.62 103.57 395.91 104.75C396.86 108.54 399.43 110.41 403.15 110.75C405.22 110.94 407.31 110.78 409.39 110.81C410.34 110.82 410.84 110.31 411.14 109.5C412.1 106.95 413.04 104.39 414.01 101.84C414.48 100.61 414.04 100.14 412.78 100.08C411.17 100 409.65 100.36 408.11 100.72C406.27 101.14 405.31 100.42 405.31 98.55C405.31 97.27 405.58 95.99 405.72 94.71C406.07 91.29 406.45 87.87 405.84 84.42C405.39 81.85 405.62 79.31 406.58 76.81C407.61 74.12 407.65 71.24 406.72 68.57C405.95 66.34 406.62 65.13 408.41 63.93C411.48 61.86 413.86 59.09 416.08 56.14C417.5 54.25 417.62 52.53 416.24 50.67C415.43 49.57 414.74 48.37 413.8 47.39C408.57 41.97 404.32 35.67 398.47 30.82C396.46 29.16 396.28 27.21 397.59 24.39C398.95 21.47 399.11 18.54 397.41 15.74C395.57 12.71 389.19 11.03 386.4 13.32C384.53 14.85 382.57 17.02 382.68 19.99C382.7 20.48 382.92 21.18 382.68 21.44C379.82 24.42 382.87 27.16 383.05 29.98C383.15 31.61 385.03 30.89 386.25 31.23C381.29 36.48 383.03 42.63 383.58 48.6C383.81 51.07 384.74 53.45 384.72 56.56C383.42 54.7 382.59 55.31 381.69 56.33C380.69 57.47 379.47 58.37 378.15 59.11C377.01 59.75 375.97 60.09 374.54 59.51C372.89 58.86 371.37 58.7 370.51 61.3C369.57 64.12 369.26 65.61 370.82 67.78C371.42 68.61 371.99 68.73 372.81 68.44C374.03 68.01 375.32 67.64 376.27 66.74C378.51 64.63 381.47 64.07 384.12 62.87C385.24 62.36 385.84 62.58 385.99 63.92C386.67 69.79 386.93 75.59 385.29 81.42C383.79 86.74 382.5 92.1 380.32 97.21C379.57 98.95 379.37 100.77 379.87 102.68C381.07 107.23 380.47 111.81 379.93 116.37C379.37 121.07 378.8 125.77 377.13 130.26C376.74 131.3 376.35 132.26 375.03 132.43C374.66 132.48 374.2 132.8 374 133.13C372.19 136.12 369.27 136.3 366.25 136.25C366.03 136.25 365.82 136.22 365.6 136.21C364.65 136.17 363.59 136.06 363.21 137.16C362.77 138.44 363.92 138.92 364.74 139.41C367.44 141.02 370.44 141.79 373.51 142.2C376.28 142.56 379.07 142.73 381.89 142.42C383.64 142.22 384.31 141.47 384.23 139.8C384.13 137.76 384.7 135.68 383.44 133.74C382.95 132.99 383.3 131.91 383.53 131C384.24 128.21 385.08 125.48 386.43 122.92C389.02 118.02 390.67 112.94 389.93 107.24C389.34 102.73 391.1 98.94 394.36 95.84C396.43 93.88 398.18 91.61 400.24 89.57ZM401.23 47.49C403.14 49.07 405.05 50.66 406.96 52.24C407.18 52.42 407.42 52.59 407.61 52.79C408.06 53.27 408.38 53.78 408.22 54.52C407.8 56.37 404.6 59.45 402.33 59.75C402.95 58.97 403.8 58.42 404.5 57.72C406.33 55.9 406.27 54.23 404.45 52.4C403.07 51.01 401.57 49.69 401.23 47.48V47.49Z" fill="#00B3FF"/>
<path d="M423.95 61.07C423.57 82.9 418.82 103.6 407.61 122.54C402.81 130.66 396.89 137.83 388.65 142.76C379.24 148.39 370.29 147.81 361.66 141.01C361.07 140.55 360.42 139.68 359.66 140.51C358.92 141.32 359.88 141.95 360.3 142.52C368.01 152.94 380.63 155.31 392.09 148.41C400.5 143.35 406.52 135.99 411.55 127.75C420.2 113.57 425.11 98.06 427.81 81.76C429.32 72.66 429.89 63.5 429.45 54.31C428.84 41.58 426.71 29.17 420.12 17.98C416.26 11.42 411.19 6.18002 403.46 4.27002C397.33 2.75002 391.66 4.23002 386.25 7.10002C385.77 7.36002 385.04 7.68003 385.3 8.34002C385.58 9.05002 386.29 8.63002 386.8 8.48002C397.51 5.25002 405.8 9.02002 412.33 17.48C418.24 25.13 420.94 34.12 422.56 43.47C423.57 49.28 424.09 55.14 423.96 61.06L423.95 61.07Z" fill="#00B3FF"/>
<path d="M462.23 8.85999C461.39 9.46999 460.56 10.08 459.71 10.68C452.55 15.78 449.08 23.08 447.3 31.39C446.93 33.12 448.08 34.11 450.22 34.12C455.11 34.16 459.46 31.22 461.28 26.62C462.24 24.21 462.75 21.68 463.31 19.16C464.17 15.28 465.49 11.6 467.55 8.17999C468.62 6.38999 468.16 5.46999 466.12 5.29999C457.79 4.57999 450.44 6.71999 444.72 13.07C440.83 17.39 439.72 22.49 441.34 28.1C441.64 29.15 441.8 30.65 443.2 30.7C444.68 30.75 444.76 29.23 445.06 28.18C446.65 22.74 448.9 17.68 453.11 13.69C455.67 11.26 458.56 9.41999 461.89 8.35999C462 8.52999 462.12 8.68999 462.23 8.85999Z" fill="#44BF00"/>
<path d="M474.92 45.42C471.09 44.35 467.24 43.76 463.26 44.01C459.03 44.27 455.12 45.61 451.34 47.4C449.75 48.15 449.55 49.3 450.51 50.73C452.71 54.02 457.19 55.78 461.08 54.94C463.42 54.43 465.54 53.39 467.69 52.4C471.02 50.86 474.37 49.45 478.09 49.12C480.04 48.95 480.54 47.99 479.57 46.36C475.59 39.72 466.75 33.88 457.39 36.33C454.21 37.16 451.73 39.08 449.93 41.82C449.44 42.56 448.63 43.42 449.29 44.34C450.01 45.34 451.05 44.64 451.85 44.33C455.34 42.94 458.89 41.86 462.68 41.76C467.15 41.63 471.31 42.56 474.92 45.44V45.42Z" fill="#44BF00"/>
<path d="M439.89 47.56C439.74 35.19 437.56 23.3 431.01 12.57C427.39 6.64002 422.62 2.02002 415.57 0.360022C413.81 -0.0499784 412.01 -0.0199784 410.21 0.0400216C409.8 0.0500216 409.24 2.15769e-05 409.14 0.530022C409 1.21002 409.61 1.32002 410.08 1.46002C413.35 2.45002 416.31 4.02002 418.94 6.21002C424.92 11.19 428.56 17.72 431.19 24.88C435.14 35.66 436.39 46.88 436.38 58.28C436.38 58.57 436.36 58.85 436.37 59.14C436.4 60.12 436.15 61.45 437.5 61.55C438.82 61.65 438.81 60.33 439 59.35C439.72 55.45 439.97 51.52 439.9 47.56H439.89Z" fill="#44BF00"/>
<path d="M440.47 97.81H458.63C460.17 97.81 461.41 99.06 461.41 100.59H437.68C437.68 99.05 438.93 97.81 440.46 97.81H440.47Z" fill="#44BF00"/>
<path d="M435.45 119.97C435.45 117.66 437.32 115.79 439.63 115.79H460.33C459.1 117.06 458.01 118.48 457.11 120.01H435.44V119.97H435.45Z" fill="#44BF00"/>
<path d="M468.42 89.11C468.42 86.8 470.29 84.93 472.6 84.93H472.64V100.75H468.42V89.11Z" fill="#44BF00"/>
<path d="M472.65 106.75V109.34C471.19 109.58 469.78 109.96 468.43 110.47V106.75H472.65Z" fill="#44BF00"/>
<path d="M488.81 78.98C488.81 79.44 488.43 79.82 487.97 79.82H485.95C485.49 79.82 485.11 79.44 485.11 78.98V73.58C485.11 73.12 485.49 72.74 485.95 72.74H487.97C488.43 72.74 488.81 73.12 488.81 73.58V74.33H498.06C499.13 74.33 500.01 75.2 500.01 76.28C500.01 77.36 499.14 78.23 498.06 78.23H488.81V78.98Z" fill="#44BF00"/>
<path d="M476.24 110.1C487.88 110.1 497.36 119.57 497.36 131.22C497.36 142.87 487.89 152.34 476.24 152.34C464.59 152.34 455.12 142.87 455.12 131.22C455.12 119.57 464.59 110.1 476.24 110.1ZM477.44 147.21C485.29 146.62 491.59 140.36 492.22 132.51H485.02C484.45 136.41 481.35 139.48 477.44 140V147.2V147.21ZM477.44 122.43C481.51 122.97 484.69 126.28 485.08 130.39H492.25C491.84 122.33 485.46 115.83 477.45 115.22V122.42L477.44 122.43ZM475.32 115.22C467.18 115.68 460.65 122.24 460.22 130.4H467.4C467.79 126.19 471.12 122.82 475.32 122.4V115.22ZM475.32 147.22V140.05C471.28 139.63 468.03 136.5 467.45 132.51H460.26C460.89 140.45 467.33 146.77 475.32 147.22Z" fill="#44BF00"/>
<path d="M432.51 134.6C437.41 134.6 441.38 138.57 441.38 143.47C441.38 148.37 437.41 152.34 432.51 152.34C427.61 152.34 423.64 148.37 423.64 143.47C423.64 138.57 427.61 134.6 432.51 134.6ZM433.04 149.33C435.86 149.08 438.12 146.82 438.37 144H436.05C435.82 145.56 434.59 146.79 433.03 147.02V149.34L433.04 149.33ZM433.04 139.92C434.6 140.15 435.83 141.38 436.06 142.94H438.38C438.13 140.12 435.87 137.86 433.05 137.61V139.93L433.04 139.92ZM431.98 149.33V147.01C430.42 146.78 429.19 145.55 428.96 143.99H426.64C426.89 146.81 429.15 149.07 431.97 149.32L431.98 149.33ZM428.97 142.93C429.2 141.37 430.43 140.14 431.99 139.91V137.59C429.17 137.84 426.91 140.1 426.66 142.92H428.98L428.97 142.93Z" fill="#44BF00"/>
<path d="M409.85 132.26L414.53 133.89C415.17 134.12 415.83 134.23 416.5 134.23C416.85 134.23 417.2 134.21 417.53 134.15L417.57 134.02C417.76 133.3 417.33 132.56 416.6 132.37L410.82 130.85C410.51 131.32 410.18 131.8 409.85 132.27V132.26Z" fill="#44BF00"/>
<path d="M406.82 136.33L413.65 138.71C417.61 140.09 422 138.79 424.58 135.5L430.56 127.86V133.72C431.19 133.6 431.84 133.53 432.5 133.53C433.16 133.53 433.82 133.6 434.44 133.72C434.44 129.15 438.16 125.44 442.73 125.44H454.81C455.18 124.09 455.67 122.79 456.27 121.54H434.44V109.38C434.44 107.34 436.09 105.69 438.13 105.69H474.27V109.13C474.92 109.07 475.56 109.05 476.22 109.05C476.88 109.05 477.52 109.07 478.16 109.13V84.88C478.16 81.43 480.78 78.59 484.13 78.26V74.35C478.63 74.7 474.26 79.29 474.26 84.88V101.8H438.12C433.93 101.8 430.54 105.2 430.54 109.39V121.54L421.96 132.51C420.13 134.85 417 135.77 414.19 134.79L409.24 133.06C408.46 134.18 407.65 135.27 406.79 136.33H406.82Z" fill="#44BF00"/>
<path d="M41.64 41.3999C38.83 41.3999 38.34 43.0499 38.34 45.6699V82.6499C38.63 89.2499 41.93 92.5499 47.66 92.5499H49.12V94.9799H43.59C40.97 94.88 39.8 94.2999 37.57 92.6499C36.79 91.9699 36.11 91.2899 35.43 90.4199C33.2 93.0399 29.99 94.8899 26.21 94.9799H15.34C10.58 94.9799 6.7 93.3299 4.08 90.6099C1.46 87.9899 0 84.2999 0 80.3199C0 76.3399 1.26 72.7499 3.69 70.2199C6.12 67.6999 9.9 66.3399 14.66 66.4299C19.42 66.5299 21.65 68.4699 22.72 70.6999C21.26 69.4399 19.23 68.9499 16.6 68.9499C10.29 68.9499 7.38 73.4099 7.38 80.3099C7.38 87.2099 10.1 92.5399 16.6 92.5399H22.33C24.37 92.5399 26.6 91.8599 28.25 90.3099C29.8 88.7599 30.97 86.3299 31.07 82.7399V40.3199H42.62V41.3899H41.65L41.64 41.3999Z" fill="#00B3FF"/>
<path d="M45.23 94.9799V92.5499H60.28V94.9799H45.23Z" fill="#00B3FF"/>
<path d="M56.4 94.9799V92.5499H71.45V94.9799H56.4Z" fill="#00B3FF"/>
<path d="M67.5601 94.9799V92.5499H82.6101V94.9799H67.5601Z" fill="#00B3FF"/>
<path d="M118.71 70.9999C121.72 74.0099 123.27 78.0899 123.27 83.0399C123.27 87.9899 121.62 92.1599 118.51 94.9799C115.4 97.9899 110.94 99.4499 105.5 99.4499C100.45 99.4499 96.18 97.6099 93.46 94.8899C92.3 93.7199 91.42 92.4599 90.74 91.1999C89.87 92.8499 88.6 93.9199 87.05 94.3999C86.18 94.6899 85.3 94.8899 84.33 94.9799H78.7V92.5499H81.71C83.65 92.5499 85.3 92.1599 86.56 90.8999C87.82 89.6399 88.6 87.4999 88.89 84.1099V82.9399C88.89 77.7999 90.35 74.0099 93.74 70.8999C96.55 68.0799 101.12 66.4399 106.46 66.4399C111.51 66.4399 115.97 68.2799 118.69 70.9999H118.71ZM98.91 72.5499C97.26 74.9799 96.29 77.5999 96.29 81.9699C96.29 86.9199 97.45 89.7399 99.3 92.5499C101.14 95.2699 103.47 96.6299 106.48 96.6299C109.49 96.6299 111.92 95.4699 113.66 93.0399C115.5 90.7099 115.99 88.1899 115.99 83.9199C115.99 78.9699 115.21 75.9599 113.37 73.2399C111.53 70.4199 109.2 69.0699 106.19 69.0699C103.18 69.0699 100.66 70.2399 98.91 72.5599V72.5499Z" fill="#00B3FF"/>
<path d="M136.67 41.1099C137.45 41.7899 137.45 42.3699 137.45 43.9299H136.87C136.58 42.0899 135.12 41.4999 133.08 41.4999C130.07 41.4999 128.81 43.2499 128.81 45.6699C128.81 48.2899 130.07 50.1299 133.08 50.1299H137.74V51.4899H124.25V50.2299H128.52C126.48 49.2599 125.51 47.7099 125.51 45.6699C125.51 42.6599 128.13 40.3299 132.5 40.3299C134.54 40.3299 135.99 40.6199 136.67 41.1099ZM134.64 76.4399C134.64 78.09 134.74 80.2199 135.51 82.1699C136.29 84.2099 137.55 86.2499 140.17 87.6999C140.46 87.7999 140.56 87.9899 140.46 88.0899C140.36 88.2799 139.98 88.2799 139.49 88.1899C138.03 87.7999 135.51 87.1199 133.18 85.3699C130.85 83.6199 128.81 81 128.13 76.4399V61.7799C128.13 59.4499 127.74 57.8999 125.12 57.8999H124.25V56.9299H134.64V76.4399ZM154.34 41.2999C151.91 41.2999 151.33 42.6599 151.04 44.6999V82.6499C151.04 90.8999 146.48 94.9799 137.45 94.9799C132.69 94.9799 129.1 93.0399 127.06 90.9999V88.3799C129.1 90.6099 131.91 92.5499 135.12 92.5499C137.16 92.5499 139.29 91.97 140.85 90.41C142.4 88.86 143.47 86.4299 143.76 82.8399V40.3199H155.31V41.2899H154.34V41.2999Z" fill="#00B3FF"/>
<path d="M168.22 41.3C164.43 41.3 164.05 43.05 164.05 45.67V94.98H156.77V40.33L168.22 40.43V41.3Z" fill="#00B3FF"/>
<path d="M218.02 67.6999C219.57 69.1599 219.57 70.8999 219.57 75.4699H218.31C218.02 70.4199 214.62 68.7699 210.06 68.7699C203.75 68.7699 200.84 73.2299 200.84 80.2199C200.84 86.5299 203.07 91.7699 208.41 92.5499H228.11V94.9799H207.34C204.23 95.0799 201.32 96.2399 199.19 98.2799C197.05 100.32 195.6 103.33 195.6 107.21C195.6 111.09 197.06 113.91 199.48 115.75C201.81 117.69 205.11 118.66 208.7 118.66H212.19C214.13 118.66 216.07 118.66 217.63 117.98C219.09 117.3 220.06 116.04 220.06 113.42V111.87H221.13V113.42C221.13 117.4 220.74 119.44 219.38 120.41C218.02 121.38 215.79 121.48 212.2 121.48H208.71C195.51 121.48 188.62 115.95 188.62 107.31C188.62 100.32 193.18 95.0799 201.34 93.2399C195.9 90.0399 193.48 85.5699 193.48 80.2299C193.48 76.2499 194.94 72.5599 197.56 69.9399C200.18 67.3199 204.06 65.6699 208.82 65.6699C213.58 65.6699 216.49 66.3499 218.04 67.7099L218.02 67.6999Z" fill="#00B3FF"/>
<path d="M224.23 94.9799V92.5499H239.28V94.9799H224.23Z" fill="#00B3FF"/>
<path d="M235.39 94.9799V92.5499H250.44V94.9799H235.39Z" fill="#00B3FF"/>
<path d="M286.55 70.9999C289.56 74.0099 290.82 77.7999 291.11 81.9699V83.2299C291.21 87.0199 292.08 89.2499 293.34 90.6999C294.6 92.1599 296.35 92.5399 298.39 92.5399H302.08V94.9699H295.77C293.83 94.6799 292.08 94.2899 290.92 93.1299C290.24 92.5499 289.76 91.8699 289.27 91.0899C287.62 94.1999 285.1 96.8199 280.83 98.2699C278.6 99.0499 276.07 99.4399 273.36 99.4399C268.31 99.4399 264.04 97.5999 261.32 94.8799C260.16 93.7099 259.28 92.4499 258.6 91.1899C257.73 92.8399 256.46 93.9099 254.91 94.3899C254.04 94.6799 253.16 94.8799 252.19 94.9699H246.56V92.5399H249.57C251.51 92.5399 253.16 92.1499 254.42 90.8899C255.68 89.6299 256.46 87.4899 256.75 84.0999V82.9299C256.75 77.7899 258.21 73.9999 261.6 70.8899C264.41 68.0699 268.98 66.4299 274.32 66.4299C279.37 66.4299 283.83 68.2699 286.55 70.9899V70.9999ZM266.75 72.5499C265.1 74.9799 264.13 77.5999 264.13 81.9699C264.13 86.9199 265.29 89.7399 267.14 92.5499C268.98 95.2699 271.31 96.6299 274.32 96.6299C277.33 96.6299 279.76 95.4699 281.5 93.0399C283.34 90.7099 283.83 88.1899 283.83 83.9199C283.83 78.9699 283.05 75.9599 281.21 73.2399C279.37 70.4199 277.04 69.0699 274.03 69.0699C271.02 69.0699 268.5 70.2399 266.75 72.5599V72.5499Z" fill="#00B3FF"/>
<path d="M298.2 94.9799V92.5499H313.25V94.9799H298.2Z" fill="#00B3FF"/>
<path d="M309.36 94.9799V92.5499H324.41V94.9799H309.36Z" fill="#00B3FF"/>
<path d="M342.46 41.4C338.67 41.4 338.19 43.05 338.19 45.67V81.49C338.19 85.66 336.93 88.96 334.7 91.29C332.47 93.62 329.56 94.98 326.06 94.98H320.53V92.55H322.18C324.22 92.55 326.45 91.87 328 90.32C329.55 88.77 330.62 86.34 330.91 82.75V40.33H342.46V41.4Z" fill="#00B3FF"/>
<path d="M3.43994 142.41C3.43994 141.43 3.58994 140.44 3.89994 139.46C4.20994 138.48 4.58994 137.63 5.04994 136.92C5.11994 136.79 5.25994 136.77 5.45994 136.87L7.66994 137.74C7.75994 137.78 7.80994 137.83 7.81994 137.89C7.81994 137.95 7.81994 138.02 7.77994 138.1C7.48994 138.61 7.20994 139.21 6.94994 139.89C6.68994 140.57 6.54994 141.32 6.54994 142.14C6.54994 142.85 6.65994 143.45 6.88994 143.93C7.11994 144.41 7.40994 144.8 7.75994 145.09C8.10994 145.38 8.50994 145.59 8.94994 145.7C9.38994 145.82 9.80994 145.88 10.2299 145.88C11.2899 145.88 12.1299 145.6 12.7699 145.05C13.4099 144.49 13.7299 143.6 13.7299 142.36V124.72C13.7299 124.54 13.8199 124.45 13.9999 124.45H16.5199C16.6999 124.45 16.7899 124.54 16.7899 124.72V138.59C16.7899 139.13 16.9899 139.55 17.3999 139.84C17.8099 140.13 18.3599 140.28 19.0499 140.28H19.4899C19.8499 140.28 20.1299 140.38 20.3099 140.58C20.4899 140.78 20.5799 141.12 20.5799 141.6C20.5799 142.13 20.4899 142.5 20.3199 142.7C20.1499 142.9 19.8699 143 19.4899 143C18.9099 143 18.3899 142.95 17.9499 142.85C17.4999 142.75 17.1199 142.51 16.7899 142.12V142.42C16.7899 143.46 16.6299 144.37 16.3099 145.15C15.9899 145.93 15.5399 146.58 14.9499 147.11C14.3599 147.63 13.6599 148.02 12.8399 148.27C12.0199 148.52 11.1099 148.65 10.1199 148.65C9.12994 148.65 8.26994 148.52 7.45994 148.27C6.64994 148.02 5.94994 147.63 5.34994 147.11C4.74994 146.59 4.27994 145.94 3.94994 145.16C3.60994 144.38 3.44994 143.46 3.44994 142.4L3.43994 142.41Z" fill="#44BF00"/>
<path d="M19.5199 143.01C19.1599 143.01 18.9099 142.92 18.7699 142.73C18.6299 142.55 18.5699 142.21 18.5699 141.71C18.5699 141.16 18.6299 140.78 18.7599 140.58C18.8899 140.38 19.1399 140.28 19.5199 140.28H22.7999C23.1599 140.28 23.4399 140.38 23.6199 140.58C23.7999 140.78 23.8899 141.13 23.8899 141.63C23.8899 142.2 23.7999 142.57 23.6299 142.75C23.4599 142.92 23.1799 143.01 22.7999 143.01H19.5199Z" fill="#44BF00"/>
<path d="M22.8 143.01C22.44 143.01 22.19 142.92 22.05 142.73C21.91 142.55 21.85 142.21 21.85 141.71C21.85 141.16 21.91 140.78 22.04 140.58C22.17 140.38 22.42 140.28 22.8 140.28H26.08C26.44 140.28 26.72 140.38 26.9 140.58C27.08 140.78 27.17 141.13 27.17 141.63C27.17 142.2 27.08 142.57 26.91 142.75C26.74 142.92 26.46 143.01 26.08 143.01H22.8Z" fill="#44BF00"/>
<path d="M26.07 143.01C25.71 143.01 25.46 142.92 25.32 142.73C25.18 142.55 25.12 142.21 25.12 141.71C25.12 141.16 25.18 140.78 25.31 140.58C25.44 140.38 25.69 140.28 26.07 140.28H29.35C29.71 140.28 29.99 140.38 30.17 140.58C30.35 140.78 30.44 141.13 30.44 141.63C30.44 142.2 30.35 142.57 30.18 142.75C30.01 142.92 29.73 143.01 29.35 143.01H26.07Z" fill="#44BF00"/>
<path d="M29.3499 143.01C28.9899 143.01 28.7399 142.92 28.5999 142.73C28.4599 142.55 28.3999 142.21 28.3999 141.71C28.3999 141.16 28.4599 140.78 28.5899 140.58C28.7199 140.38 28.9699 140.28 29.3499 140.28H32.6299C32.9899 140.28 33.2699 140.38 33.4499 140.58C33.6299 140.78 33.7199 141.13 33.7199 141.63C33.7199 142.2 33.6299 142.57 33.4599 142.75C33.2899 142.92 33.0099 143.01 32.6299 143.01H29.3499Z" fill="#44BF00"/>
<path d="M38.5299 141.61C38.2799 142.14 37.8899 142.51 37.3799 142.71C36.8699 142.91 36.1699 143.01 35.2999 143.01H32.7599C32.3999 143.01 32.1199 142.92 31.9399 142.75C31.7599 142.58 31.6699 142.23 31.6699 141.72C31.6699 141.21 31.7599 140.81 31.9299 140.6C32.0999 140.39 32.3799 140.28 32.7599 140.28H34.5299C34.8599 140.28 35.1099 140.23 35.2799 140.13C35.4499 140.03 35.5799 139.88 35.6599 139.67C35.7399 139.46 35.7899 139.19 35.8099 138.85C35.8299 138.51 35.8399 138.1 35.8399 137.61V131.95C35.8399 131.84 35.8899 131.77 35.9899 131.73C36.0899 131.69 36.1899 131.68 36.2999 131.68H38.6299C38.8099 131.68 38.8999 131.77 38.8999 131.95V138.59C38.8999 139.13 39.0999 139.55 39.5099 139.84C39.9199 140.13 40.4699 140.28 41.1599 140.28H41.6199C41.9799 140.28 42.2599 140.38 42.4399 140.58C42.6199 140.78 42.7099 141.12 42.7099 141.6C42.7099 142.13 42.6199 142.5 42.4499 142.7C42.2799 142.9 41.9999 143 41.6199 143C40.9099 143 40.2899 142.91 39.7599 142.74C39.2299 142.57 38.8099 142.18 38.5099 141.6L38.5299 141.61ZM34.2899 148.26C34.1099 148.26 34.0199 148.17 34.0199 147.98V145.61C34.0199 145.43 34.1099 145.33 34.2899 145.33H36.5799C36.7599 145.33 36.8499 145.42 36.8499 145.61V147.98C36.8499 148.16 36.7599 148.26 36.5799 148.26H34.2899ZM37.8399 148.26C37.6599 148.26 37.5699 148.17 37.5699 147.98V145.61C37.5699 145.43 37.6599 145.33 37.8399 145.33H40.1299C40.3099 145.33 40.3999 145.42 40.3999 145.61V147.98C40.3999 148.16 40.3099 148.26 40.1299 148.26H37.8399Z" fill="#44BF00"/>
<path d="M41.66 143.01C41.3 143.01 41.05 142.92 40.91 142.73C40.77 142.55 40.71 142.21 40.71 141.71C40.71 141.16 40.77 140.78 40.9 140.58C41.03 140.38 41.28 140.28 41.66 140.28H44.94C45.3 140.28 45.58 140.38 45.76 140.58C45.94 140.78 46.03 141.13 46.03 141.63C46.03 142.2 45.94 142.57 45.77 142.75C45.6 142.92 45.32 143.01 44.94 143.01H41.66Z" fill="#44BF00"/>
<path d="M44.94 143.01C44.58 143.01 44.33 142.92 44.19 142.73C44.05 142.55 43.99 142.21 43.99 141.71C43.99 141.16 44.05 140.78 44.18 140.58C44.31 140.38 44.56 140.28 44.94 140.28H48.22C48.58 140.28 48.86 140.38 49.04 140.58C49.22 140.78 49.31 141.13 49.31 141.63C49.31 142.2 49.22 142.57 49.05 142.75C48.88 142.92 48.6 143.01 48.22 143.01H44.94Z" fill="#44BF00"/>
<path d="M48.2099 143.01C47.8499 143.01 47.5999 142.92 47.4599 142.73C47.3199 142.55 47.2599 142.21 47.2599 141.71C47.2599 141.16 47.3199 140.78 47.4499 140.58C47.5799 140.38 47.8299 140.28 48.2099 140.28H51.4899C51.8499 140.28 52.1299 140.38 52.3099 140.58C52.4899 140.78 52.5799 141.13 52.5799 141.63C52.5799 142.2 52.4899 142.57 52.3199 142.75C52.1499 142.92 51.8699 143.01 51.4899 143.01H48.2099Z" fill="#44BF00"/>
<path d="M51.4899 143.01C51.1299 143.01 50.8499 142.9 50.6699 142.69C50.4899 142.48 50.3999 142.13 50.3999 141.66C50.3999 141.13 50.4899 140.76 50.6599 140.57C50.8299 140.38 51.1099 140.28 51.4899 140.28H54.5199C54.2699 139.74 54.1399 139.1 54.1399 138.38C54.1399 137.66 54.2399 137.07 54.4499 136.56C54.6599 136.05 54.9499 135.64 55.3099 135.31C55.6699 134.98 56.0899 134.74 56.5699 134.59C57.0399 134.44 57.5399 134.36 58.0699 134.36C59.2199 134.36 60.1699 134.69 60.9199 135.34C61.6699 135.99 62.0499 137.01 62.0499 138.38C62.0499 138.67 62.0299 138.99 61.9799 139.33C61.9299 139.67 61.8699 139.99 61.7799 140.28C62.2299 140.28 62.6099 140.23 62.8999 140.12C63.1899 140.01 63.4199 139.84 63.5799 139.62C63.7399 139.39 63.8499 139.1 63.9099 138.75C63.9699 138.4 63.9899 137.98 63.9899 137.51C63.9899 136.17 63.6099 135.1 62.8399 134.3C62.0799 133.5 60.8999 133.1 59.3199 133.1C58.6999 133.1 58.0499 133.16 57.3699 133.29C56.6899 133.42 55.9999 133.64 55.3099 133.95C55.1999 134.02 55.1099 134.06 55.0399 134.06C54.9499 134.06 54.8899 134.02 54.8799 133.95L54.2199 132.28C54.1799 132.17 54.1699 132.09 54.1699 132.03C54.1699 131.94 54.2199 131.87 54.3099 131.81C56.0199 130.92 57.8799 130.47 59.8799 130.47C61.3199 130.47 62.5099 130.68 63.4599 131.1C64.4099 131.52 65.1599 132.06 65.7099 132.72C66.2599 133.38 66.6499 134.13 66.8699 134.96C67.0899 135.79 67.1999 136.62 67.1999 137.46C67.1999 138.48 67.1199 139.34 66.9499 140.04C66.7899 140.74 66.5199 141.31 66.1399 141.75C65.7599 142.19 65.2799 142.51 64.6799 142.71C64.0799 142.91 63.3499 143.01 62.4999 143.01H51.4999H51.4899ZM58.0699 136.52C57.5599 136.52 57.1599 136.69 56.8799 137.02C56.5999 137.35 56.4599 137.83 56.4599 138.44C56.4599 139.05 56.5899 139.54 56.8399 139.84C57.0899 140.14 57.4499 140.31 57.8999 140.34H58.1999C58.6699 140.3 59.0299 140.14 59.2599 139.84C59.4999 139.54 59.6099 139.08 59.6099 138.44C59.6099 137.8 59.4799 137.35 59.2099 137.02C58.9499 136.69 58.5599 136.52 58.0499 136.52H58.0699Z" fill="#44BF00"/>
<path d="M70.0299 121.69C69.8999 121.49 69.7999 121.26 69.7199 120.99C69.6399 120.73 69.5999 120.44 69.5999 120.13C69.5999 119.82 69.6499 119.51 69.7499 119.19C69.8499 118.87 70.0199 118.58 70.2599 118.32C70.4999 118.06 70.7999 117.84 71.1599 117.66C71.5199 117.49 71.9699 117.4 72.4999 117.4C73.0299 117.4 73.4599 117.49 73.8699 117.69C74.2699 117.88 74.5899 118.13 74.8299 118.44C74.8799 118.55 74.8799 118.63 74.8299 118.69L74.1199 119.37C74.0099 119.46 73.9199 119.47 73.8499 119.4C73.6699 119.22 73.4699 119.07 73.2499 118.95C73.0299 118.83 72.7899 118.77 72.5399 118.77C72.1199 118.77 71.7899 118.9 71.5599 119.17C71.3299 119.44 71.2099 119.77 71.2099 120.17C71.2099 120.53 71.3099 120.85 71.4999 121.11C71.6899 121.37 71.8899 121.57 72.0899 121.7H74.8499C74.9599 121.7 75.0099 121.76 75.0099 121.89V122.9C75.0099 123.03 74.9599 123.09 74.8499 123.09H69.0599C68.9499 123.09 68.8999 123.03 68.8999 122.9V121.89C68.8999 121.76 68.9499 121.7 69.0599 121.7H70.0699L70.0299 121.69ZM70.3499 124.72C70.3499 124.54 70.4399 124.45 70.6199 124.45H73.1399C73.3199 124.45 73.4099 124.54 73.4099 124.72V138.84C73.4099 139.39 73.5099 139.76 73.7199 139.97C73.9299 140.18 74.2599 140.28 74.7199 140.28H75.6799C76.0399 140.28 76.3199 140.39 76.4999 140.6C76.6799 140.81 76.7699 141.18 76.7699 141.69C76.7699 142.26 76.6799 142.62 76.5099 142.78C76.3399 142.94 76.0599 143.01 75.6799 143.01H73.5199C72.3799 143.01 71.5699 142.73 71.0799 142.18C70.5899 141.63 70.3499 140.76 70.3499 139.57V124.72Z" fill="#44BF00"/>
<path d="M75.7099 143.01C75.3499 143.01 75.0999 142.92 74.9599 142.73C74.8199 142.55 74.7599 142.21 74.7599 141.71C74.7599 141.16 74.8199 140.78 74.9499 140.58C75.0799 140.38 75.3299 140.28 75.7099 140.28H78.9899C79.3499 140.28 79.6299 140.38 79.8099 140.58C79.9899 140.78 80.0799 141.13 80.0799 141.63C80.0799 142.2 79.9899 142.57 79.8199 142.75C79.6499 142.92 79.3699 143.01 78.9899 143.01H75.7099Z" fill="#44BF00"/>
<path d="M78.9799 143.01C78.6199 143.01 78.3699 142.92 78.2299 142.73C78.0899 142.55 78.0299 142.21 78.0299 141.71C78.0299 141.16 78.0899 140.78 78.2199 140.58C78.3499 140.38 78.5999 140.28 78.9799 140.28H82.2599C82.6199 140.28 82.8999 140.38 83.0799 140.58C83.2599 140.78 83.3499 141.13 83.3499 141.63C83.3499 142.2 83.2599 142.57 83.0899 142.75C82.9199 142.92 82.6399 143.01 82.2599 143.01H78.9799Z" fill="#44BF00"/>
<path d="M82.2599 143.01C81.8999 143.01 81.6499 142.92 81.5099 142.73C81.3699 142.55 81.3099 142.21 81.3099 141.71C81.3099 141.16 81.3699 140.78 81.4999 140.58C81.6299 140.38 81.8799 140.28 82.2599 140.28H85.5399C85.8999 140.28 86.1799 140.38 86.3599 140.58C86.5399 140.78 86.6299 141.13 86.6299 141.63C86.6299 142.2 86.5399 142.57 86.3699 142.75C86.1999 142.92 85.9199 143.01 85.5399 143.01H82.2599Z" fill="#44BF00"/>
<path d="M91.4299 141.61C91.1799 142.14 90.7899 142.51 90.2799 142.71C89.7699 142.91 89.0699 143.01 88.1999 143.01H85.66C85.3 143.01 85.0199 142.92 84.8399 142.75C84.6599 142.58 84.5699 142.23 84.5699 141.72C84.5699 141.21 84.6599 140.81 84.8299 140.6C84.9999 140.39 85.28 140.28 85.66 140.28H87.4299C87.7599 140.28 88.0099 140.23 88.1799 140.13C88.3499 140.03 88.4799 139.88 88.5599 139.67C88.6399 139.46 88.6899 139.19 88.7099 138.85C88.7299 138.51 88.7399 138.1 88.7399 137.61V131.95C88.7399 131.84 88.7899 131.77 88.8899 131.73C88.9899 131.69 89.0899 131.68 89.1999 131.68H91.5299C91.7099 131.68 91.7999 131.77 91.7999 131.95V138.59C91.7999 139.13 92 139.55 92.41 139.84C92.82 140.13 93.3699 140.28 94.0599 140.28H94.5199C94.8799 140.28 95.1599 140.38 95.3399 140.58C95.5199 140.78 95.6099 141.12 95.6099 141.6C95.6099 142.13 95.5199 142.5 95.3499 142.7C95.1799 142.9 94.8999 143 94.5199 143C93.8099 143 93.1899 142.91 92.66 142.74C92.13 142.57 91.71 142.18 91.41 141.6L91.4299 141.61ZM87.3899 128.95C87.2099 128.95 87.1199 128.86 87.1199 128.67V126.3C87.1199 126.12 87.2099 126.02 87.3899 126.02H89.6799C89.8599 126.02 89.9499 126.11 89.9499 126.3V128.67C89.9499 128.85 89.8599 128.95 89.6799 128.95H87.3899ZM90.9399 128.95C90.7599 128.95 90.6699 128.86 90.6699 128.67V126.3C90.6699 126.12 90.7599 126.02 90.9399 126.02H93.2299C93.41 126.02 93.4999 126.11 93.4999 126.3V128.67C93.4999 128.85 93.41 128.95 93.2299 128.95H90.9399Z" fill="#44BF00"/>
<path d="M94.57 143.01C94.21 143.01 93.93 142.92 93.75 142.75C93.57 142.58 93.48 142.22 93.48 141.69C93.48 141.16 93.57 140.81 93.74 140.6C93.91 140.39 94.19 140.28 94.57 140.28H95.91C96.36 140.28 96.7 140.18 96.91 139.97C97.12 139.76 97.22 139.38 97.22 138.84V124.72C97.22 124.54 97.31 124.45 97.49 124.45H100.01C100.19 124.45 100.28 124.54 100.28 124.72V139.57C100.28 140.75 100.04 141.62 99.55 142.18C99.06 142.74 98.25 143.01 97.11 143.01H94.57Z" fill="#44BF00"/>
<path d="M106.91 142.74C106.91 142.92 106.82 143.01 106.64 143.01H104.12C103.94 143.01 103.85 142.92 103.85 142.74V124.72C103.85 124.54 103.94 124.45 104.12 124.45H106.64C106.82 124.45 106.91 124.54 106.91 124.72V142.74Z" fill="#44BF00"/>
<path d="M115.45 143.01C114.59 143.01 113.83 142.91 113.17 142.72C112.5 142.53 111.95 142.21 111.49 141.76C111.03 141.31 110.68 140.74 110.44 140.03C110.19 139.32 110.07 138.45 110.07 137.41C110.07 136.3 110.22 135.35 110.52 134.56C110.82 133.77 111.23 133.12 111.75 132.62C112.27 132.12 112.87 131.76 113.54 131.53C114.21 131.3 114.93 131.19 115.67 131.19C116.49 131.19 117.24 131.3 117.93 131.52C118.61 131.74 119.2 132.08 119.7 132.56C120.19 133.03 120.58 133.65 120.85 134.42C121.12 135.19 121.26 136.12 121.26 137.23V143.62C121.26 145.33 120.83 146.58 119.97 147.36C119.11 148.14 117.85 148.53 116.21 148.53H112.52C112.34 148.53 112.25 148.44 112.25 148.26V146.08C112.25 145.9 112.34 145.81 112.52 145.81H115.71C116.07 145.81 116.41 145.78 116.72 145.72C117.03 145.66 117.29 145.52 117.51 145.32C117.73 145.12 117.9 144.84 118.02 144.47C118.14 144.11 118.2 143.62 118.2 143.02H115.44L115.45 143.01ZM115.7 133.92C114.86 133.92 114.22 134.23 113.76 134.84C113.3 135.46 113.08 136.28 113.08 137.31C113.08 138.45 113.31 139.23 113.78 139.65C114.24 140.07 114.91 140.27 115.79 140.27H118.22V137.17C118.22 136.1 118.02 135.29 117.62 134.74C117.22 134.19 116.58 133.91 115.71 133.91L115.7 133.92Z" fill="#44BF00"/>
<path d="M143.16 145.74C144.25 145.74 145 145.6 145.4 145.33C145.8 145.06 146 144.71 146 144.29C146 143.94 145.9 143.65 145.69 143.4C145.48 143.15 145.15 142.91 144.71 142.69C144.26 142.46 143.7 142.22 143.02 141.98C142.34 141.73 141.53 141.44 140.6 141.09C140.44 141.04 140.38 140.92 140.44 140.76L141.18 138.6C141.23 138.42 141.34 138.35 141.51 138.41C142.09 138.63 142.65 138.85 143.18 139.08C143.71 139.31 144.23 139.51 144.74 139.68C145.25 139.85 145.75 140 146.24 140.12C146.73 140.24 147.23 140.3 147.76 140.3H150.48C150.84 140.3 151.12 140.39 151.3 140.58C151.48 140.76 151.57 141.09 151.57 141.57C151.57 142.1 151.48 142.48 151.31 142.7C151.14 142.92 150.86 143.03 150.48 143.03H148.6C148.69 143.18 148.79 143.41 148.91 143.73C149.03 144.05 149.09 144.39 149.09 144.75C149.09 145.26 148.99 145.74 148.79 146.2C148.59 146.65 148.28 147.06 147.85 147.4C147.42 147.75 146.87 148.02 146.19 148.23C145.51 148.44 144.68 148.54 143.7 148.54H137.48C135.12 148.54 133.36 147.99 132.21 146.9C131.06 145.81 130.48 144.32 130.48 142.45C130.48 141.94 130.53 141.43 130.63 140.91C130.73 140.39 130.86 139.89 131.03 139.41C131.19 138.93 131.38 138.47 131.59 138.04C131.8 137.61 132.02 137.23 132.26 136.91C132.35 136.76 132.48 136.75 132.64 136.86L134.8 137.98C134.95 138.07 134.97 138.19 134.88 138.34C134.57 138.85 134.28 139.44 134.02 140.11C133.76 140.78 133.62 141.48 133.62 142.18C133.62 142.88 133.74 143.45 133.99 143.9C134.24 144.35 134.56 144.72 134.96 144.99C135.36 145.26 135.82 145.46 136.33 145.58C136.84 145.7 137.36 145.76 137.89 145.76H143.21L143.16 145.74ZM137.05 153.33C136.87 153.33 136.78 153.24 136.78 153.05V150.68C136.78 150.5 136.87 150.4 137.05 150.4H139.34C139.52 150.4 139.61 150.49 139.61 150.68V153.05C139.61 153.23 139.52 153.33 139.34 153.33H137.05ZM140.6 153.33C140.42 153.33 140.33 153.24 140.33 153.05V150.68C140.33 150.5 140.42 150.4 140.6 150.4H142.89C143.07 150.4 143.16 150.49 143.16 150.68V153.05C143.16 153.23 143.07 153.33 142.89 153.33H140.6Z" fill="#44BF00"/>
<path d="M158.12 131.19C160.21 131.19 161.74 131.58 162.71 132.36C163.68 133.14 164.16 134.17 164.16 135.44C164.16 135.98 164.07 136.5 163.9 136.98C163.73 137.46 163.5 137.91 163.23 138.31C162.96 138.71 162.65 139.09 162.3 139.41C161.95 139.74 161.62 140.01 161.29 140.23C161.44 140.27 161.59 140.28 161.77 140.28H165.74C166.16 140.28 166.44 140.39 166.59 140.61C166.74 140.83 166.81 141.2 166.81 141.71C166.81 142.22 166.72 142.57 166.55 142.74C166.38 142.91 166.11 143 165.74 143H161.67C161.01 143 160.39 142.94 159.8 142.82C159.21 142.7 158.65 142.48 158.12 142.15C157.52 142.48 156.88 142.7 156.21 142.82C155.54 142.94 154.94 143 154.41 143H150.48C150.13 143 149.87 142.91 149.69 142.72C149.51 142.53 149.42 142.2 149.42 141.7C149.42 141.2 149.48 140.86 149.6 140.62C149.72 140.38 150.01 140.26 150.49 140.26H153.68C153.97 140.26 154.3 140.25 154.66 140.22C155.02 140.19 155.45 140.13 155.94 140.02C155.79 139.42 155.6 138.9 155.35 138.47C155.1 138.04 154.83 137.65 154.52 137.31C154.21 136.98 153.88 136.68 153.52 136.41C153.17 136.15 152.81 135.89 152.44 135.63C152.24 135.49 152.13 135.35 152.1 135.24C152.07 135.12 152.06 134.99 152.06 134.85V133.14C152.06 132.94 152.23 132.72 152.58 132.49C152.93 132.25 153.38 132.04 153.95 131.85C154.51 131.66 155.16 131.5 155.89 131.37C156.62 131.24 157.36 131.18 158.13 131.18L158.12 131.19ZM158.53 139.44C158.82 139.26 159.12 139.04 159.42 138.78C159.72 138.52 159.98 138.25 160.21 137.95C160.44 137.65 160.62 137.33 160.77 136.98C160.92 136.63 160.99 136.28 160.99 135.92C160.99 135.17 160.72 134.65 160.18 134.36C159.64 134.07 158.96 133.92 158.12 133.92C157.39 133.92 156.76 133.99 156.22 134.14C155.68 134.29 155.31 134.41 155.11 134.52C155.95 135.05 156.66 135.73 157.25 136.58C157.84 137.43 158.26 138.38 158.52 139.43L158.53 139.44Z" fill="#44BF00"/>
<path d="M165.74 143.01C165.38 143.01 165.13 142.92 164.99 142.73C164.85 142.55 164.79 142.21 164.79 141.71C164.79 141.16 164.85 140.78 164.98 140.58C165.11 140.38 165.36 140.28 165.74 140.28H169.02C169.38 140.28 169.66 140.38 169.84 140.58C170.02 140.78 170.11 141.13 170.11 141.63C170.11 142.2 170.02 142.57 169.85 142.75C169.68 142.92 169.4 143.01 169.02 143.01H165.74Z" fill="#44BF00"/>
<path d="M169.02 143.01C168.66 143.01 168.41 142.92 168.27 142.73C168.13 142.55 168.07 142.21 168.07 141.71C168.07 141.16 168.13 140.78 168.26 140.58C168.39 140.38 168.64 140.28 169.02 140.28H172.3C172.66 140.28 172.94 140.38 173.12 140.58C173.3 140.78 173.39 141.13 173.39 141.63C173.39 142.2 173.3 142.57 173.13 142.75C172.96 142.92 172.68 143.01 172.3 143.01H169.02Z" fill="#44BF00"/>
<path d="M172.29 143.01C171.93 143.01 171.68 142.92 171.54 142.73C171.4 142.55 171.34 142.21 171.34 141.71C171.34 141.16 171.4 140.78 171.53 140.58C171.66 140.38 171.91 140.28 172.29 140.28H175.57C175.93 140.28 176.21 140.38 176.39 140.58C176.57 140.78 176.66 141.13 176.66 141.63C176.66 142.2 176.57 142.57 176.4 142.75C176.23 142.92 175.95 143.01 175.57 143.01H172.29Z" fill="#44BF00"/>
<path d="M181.47 141.61C181.22 142.14 180.83 142.51 180.32 142.71C179.81 142.91 179.11 143.01 178.24 143.01H175.7C175.34 143.01 175.06 142.92 174.88 142.75C174.7 142.58 174.61 142.23 174.61 141.72C174.61 141.21 174.7 140.81 174.87 140.6C175.04 140.39 175.32 140.28 175.7 140.28H177.47C177.8 140.28 178.05 140.23 178.22 140.13C178.39 140.03 178.52 139.88 178.6 139.67C178.68 139.46 178.73 139.19 178.75 138.85C178.77 138.51 178.78 138.1 178.78 137.61V131.95C178.78 131.84 178.83 131.77 178.93 131.73C179.03 131.69 179.13 131.68 179.24 131.68H181.57C181.75 131.68 181.84 131.77 181.84 131.95V138.59C181.84 139.13 182.04 139.55 182.45 139.84C182.86 140.13 183.41 140.28 184.1 140.28H184.56C184.92 140.28 185.2 140.38 185.38 140.58C185.56 140.78 185.65 141.12 185.65 141.6C185.65 142.13 185.56 142.5 185.39 142.7C185.22 142.9 184.94 143 184.56 143C183.85 143 183.23 142.91 182.7 142.74C182.17 142.57 181.75 142.18 181.45 141.6L181.47 141.61ZM177.24 148.26C177.06 148.26 176.97 148.17 176.97 147.98V145.61C176.97 145.43 177.06 145.33 177.24 145.33H179.53C179.71 145.33 179.8 145.42 179.8 145.61V147.98C179.8 148.16 179.71 148.26 179.53 148.26H177.24ZM180.78 148.26C180.6 148.26 180.51 148.17 180.51 147.98V145.61C180.51 145.43 180.6 145.33 180.78 145.33H183.07C183.25 145.33 183.34 145.42 183.34 145.61V147.98C183.34 148.16 183.25 148.26 183.07 148.26H180.78Z" fill="#44BF00"/>
<path d="M184.61 143.01C184.25 143.01 184 142.92 183.86 142.73C183.72 142.55 183.66 142.21 183.66 141.71C183.66 141.16 183.72 140.78 183.85 140.58C183.98 140.38 184.23 140.28 184.61 140.28H187.89C188.25 140.28 188.53 140.38 188.71 140.58C188.89 140.78 188.98 141.13 188.98 141.63C188.98 142.2 188.89 142.57 188.72 142.75C188.55 142.92 188.27 143.01 187.89 143.01H184.61Z" fill="#44BF00"/>
<path d="M187.88 143.01C187.52 143.01 187.27 142.92 187.13 142.73C186.99 142.55 186.93 142.21 186.93 141.71C186.93 141.16 186.99 140.78 187.12 140.58C187.25 140.38 187.5 140.28 187.88 140.28H191.16C191.52 140.28 191.8 140.38 191.98 140.58C192.16 140.78 192.25 141.13 192.25 141.63C192.25 142.2 192.16 142.57 191.99 142.75C191.82 142.92 191.54 143.01 191.16 143.01H187.88Z" fill="#44BF00"/>
<path d="M191.16 143.01C190.8 143.01 190.55 142.92 190.41 142.73C190.27 142.55 190.21 142.21 190.21 141.71C190.21 141.16 190.27 140.78 190.4 140.58C190.53 140.38 190.78 140.28 191.16 140.28H194.44C194.8 140.28 195.08 140.38 195.26 140.58C195.44 140.78 195.53 141.13 195.53 141.63C195.53 142.2 195.44 142.57 195.27 142.75C195.1 142.92 194.82 143.01 194.44 143.01H191.16Z" fill="#44BF00"/>
<path d="M200.28 138.6C200.28 139.14 200.48 139.56 200.89 139.85C201.3 140.14 201.85 140.29 202.54 140.29H203C203.36 140.29 203.64 140.39 203.82 140.59C204 140.79 204.09 141.13 204.09 141.61C204.09 142.14 204 142.51 203.83 142.71C203.66 142.91 203.38 143.01 203 143.01C202.29 143.01 201.67 142.92 201.14 142.75C200.61 142.58 200.19 142.19 199.89 141.61C199.64 142.14 199.26 142.51 198.77 142.71C198.28 142.91 197.59 143.01 196.72 143.01H194.56C194.2 143.01 193.92 142.95 193.74 142.83C193.56 142.71 193.47 142.45 193.47 142.04C193.47 141.58 193.56 141.17 193.73 140.81C193.9 140.45 194.19 140.27 194.59 140.27H195.9C196.21 140.27 196.46 140.23 196.64 140.13C196.82 140.04 196.95 139.89 197.04 139.69C197.12 139.49 197.17 139.23 197.19 138.9C197.21 138.57 197.22 138.17 197.22 137.7V131.93C197.22 131.75 197.31 131.66 197.49 131.66H200.01C200.19 131.66 200.28 131.75 200.28 131.93V138.57V138.6ZM197.47 148.2C197.29 148.2 197.2 148.11 197.2 147.92V145.55C197.2 145.37 197.29 145.27 197.47 145.27H200.09C200.27 145.27 200.36 145.36 200.36 145.55V147.92C200.36 148.1 200.27 148.2 200.09 148.2H197.47Z" fill="#44BF00"/>
<path d="M202.9 143.01C202.54 143.01 202.29 142.92 202.15 142.73C202.01 142.55 201.95 142.21 201.95 141.71C201.95 141.16 202.01 140.78 202.14 140.58C202.27 140.38 202.52 140.28 202.9 140.28H206.18C206.54 140.28 206.82 140.38 207 140.58C207.18 140.78 207.27 141.13 207.27 141.63C207.27 142.2 207.18 142.57 207.01 142.75C206.84 142.92 206.56 143.01 206.18 143.01H202.9Z" fill="#44BF00"/>
<path d="M206.17 143.01C205.81 143.01 205.56 142.92 205.42 142.73C205.28 142.55 205.22 142.21 205.22 141.71C205.22 141.16 205.28 140.78 205.41 140.58C205.54 140.38 205.79 140.28 206.17 140.28H209.45C209.81 140.28 210.09 140.38 210.27 140.58C210.45 140.78 210.54 141.13 210.54 141.63C210.54 142.2 210.45 142.57 210.28 142.75C210.11 142.92 209.83 143.01 209.45 143.01H206.17Z" fill="#44BF00"/>
<path d="M209.45 143.01C209.09 143.01 208.84 142.92 208.7 142.73C208.56 142.55 208.5 142.21 208.5 141.71C208.5 141.16 208.56 140.78 208.69 140.58C208.82 140.38 209.07 140.28 209.45 140.28H212.73C213.09 140.28 213.37 140.38 213.55 140.58C213.73 140.78 213.82 141.13 213.82 141.63C213.82 142.2 213.73 142.57 213.56 142.75C213.39 142.92 213.11 143.01 212.73 143.01H209.45Z" fill="#44BF00"/>
<path d="M218.57 132.72C219.45 132.3 220.4 131.94 221.43 131.64C222.46 131.34 223.53 131.19 224.64 131.19C225.84 131.19 226.87 131.34 227.7 131.65C228.54 131.96 229.23 132.39 229.77 132.96C230.31 133.52 230.7 134.21 230.95 135.02C231.2 135.83 231.32 136.72 231.32 137.7C231.32 137.88 231.32 138.05 231.31 138.2C231.31 138.35 231.3 138.49 231.3 138.59C231.32 139.13 231.53 139.55 231.93 139.84C232.33 140.13 232.88 140.28 233.57 140.28H234.03C234.39 140.28 234.67 140.38 234.85 140.58C235.03 140.78 235.12 141.12 235.12 141.6C235.12 142.13 235.03 142.5 234.86 142.7C234.69 142.9 234.41 143 234.03 143C233.25 143 232.56 142.88 231.97 142.66C231.38 142.43 230.95 141.97 230.67 141.27C230.47 141.66 230.23 141.96 229.94 142.19C229.66 142.42 229.32 142.59 228.93 142.71C228.54 142.83 228.09 142.91 227.58 142.95C227.07 142.99 226.5 143 225.88 143H218.57C217.99 143 217.59 142.85 217.35 142.54C217.04 142.76 216.68 142.89 216.27 142.94C215.85 142.99 215.38 143.01 214.86 143.01H212.73C212.37 143.01 212.09 142.92 211.91 142.75C211.73 142.58 211.64 142.23 211.64 141.72C211.64 141.13 211.73 140.75 211.9 140.56C212.07 140.37 212.35 140.28 212.73 140.28H214.1C214.43 140.28 214.69 140.23 214.88 140.13C215.07 140.03 215.21 139.86 215.3 139.61C215.39 139.36 215.45 139.03 215.48 138.6C215.51 138.17 215.52 137.63 215.52 136.98V124.72C215.52 124.54 215.61 124.45 215.79 124.45H218.31C218.49 124.45 218.58 124.54 218.58 124.72V132.72H218.57ZM224.21 133.92C223.19 133.92 222.18 134.07 221.2 134.38C220.21 134.69 219.34 135.02 218.57 135.39V139.09C218.57 139.31 218.57 139.52 218.54 139.71C218.51 139.9 218.49 140.1 218.46 140.28H224.43C225.2 140.28 225.82 140.27 226.31 140.24C226.79 140.21 227.17 140.11 227.43 139.94C227.69 139.77 227.87 139.5 227.96 139.12C228.05 138.75 228.1 138.23 228.1 137.56C228.1 136.98 228.04 136.46 227.92 136.01C227.8 135.56 227.59 135.18 227.29 134.87C226.99 134.56 226.59 134.33 226.1 134.16C225.61 134 224.98 133.92 224.21 133.92Z" fill="#44BF00"/>
<path d="M234.02 143.01C233.66 143.01 233.38 142.92 233.2 142.75C233.02 142.58 232.93 142.22 232.93 141.69C232.93 141.16 233.02 140.81 233.19 140.6C233.36 140.39 233.64 140.28 234.02 140.28H235.36C235.81 140.28 236.15 140.18 236.36 139.97C236.57 139.76 236.67 139.38 236.67 138.84V124.72C236.67 124.54 236.76 124.45 236.94 124.45H239.46C239.64 124.45 239.73 124.54 239.73 124.72V139.57C239.73 140.75 239.49 141.62 239 142.18C238.51 142.74 237.7 143.01 236.56 143.01H234.02Z" fill="#44BF00"/>
<path d="M246.36 142.74C246.36 142.92 246.27 143.01 246.09 143.01H243.57C243.39 143.01 243.3 142.92 243.3 142.74V124.72C243.3 124.54 243.39 124.45 243.57 124.45H246.09C246.27 124.45 246.36 124.54 246.36 124.72V142.74Z" fill="#44BF00"/>
<path d="M259.93 143.01C259.4 143.01 259.03 143.14 258.81 143.41C258.59 143.67 258.48 144.01 258.48 144.41C258.48 144.9 258.62 145.26 258.89 145.47C259.16 145.68 259.71 145.8 260.53 145.8H261.27C261.45 145.8 261.54 145.89 261.54 146.07V148.25C261.54 148.43 261.45 148.52 261.27 148.52H260.21C258.68 148.52 257.49 148.21 256.63 147.59C255.77 146.97 255.35 145.9 255.35 144.39C255.35 143.59 255.47 142.92 255.72 142.39C255.97 141.86 256.29 141.44 256.69 141.13C257.09 140.82 257.54 140.6 258.05 140.47C258.56 140.34 259.07 140.28 259.58 140.28H263.37C263.84 140.28 264.23 140.24 264.52 140.17C264.81 140.1 265.04 139.97 265.2 139.79C265.36 139.61 265.47 139.37 265.53 139.07C265.59 138.77 265.61 138.4 265.61 137.97C265.61 137.39 265.56 136.85 265.45 136.35C265.34 135.85 265.16 135.42 264.9 135.06C264.64 134.7 264.31 134.42 263.9 134.22C263.49 134.02 262.98 133.92 262.36 133.92C261.78 133.92 261.24 134.04 260.75 134.27C260.26 134.51 259.81 134.83 259.41 135.23C259.28 135.36 259.16 135.37 259.03 135.26L257.64 133.79C257.48 133.66 257.45 133.54 257.56 133.41C258.14 132.77 258.82 132.24 259.59 131.83C260.36 131.41 261.31 131.2 262.44 131.2C263.66 131.2 264.68 131.39 265.5 131.76C266.32 132.13 266.97 132.63 267.47 133.26C267.97 133.89 268.31 134.62 268.52 135.44C268.73 136.27 268.83 137.15 268.83 138.07C268.83 139.05 268.74 139.86 268.56 140.5C268.38 141.14 268.11 141.64 267.76 142.02C267.4 142.39 266.96 142.65 266.44 142.8C265.91 142.95 265.29 143.02 264.58 143.02H259.94L259.93 143.01ZM262.58 147.68C262.4 147.68 262.31 147.59 262.31 147.4V145.03C262.31 144.85 262.4 144.75 262.58 144.75H265.2C265.38 144.75 265.47 144.84 265.47 145.03V147.4C265.47 147.58 265.38 147.68 265.2 147.68H262.58Z" fill="#44BF00"/>
<path d="M283.54 124.72C283.54 124.54 283.63 124.45 283.81 124.45H286.33C286.51 124.45 286.6 124.54 286.6 124.72V138.86C286.76 139.81 287.51 140.28 288.84 140.28H289.3C289.66 140.28 289.94 140.38 290.12 140.58C290.3 140.78 290.39 141.12 290.39 141.6C290.39 142.13 290.3 142.5 290.13 142.7C289.96 142.9 289.68 143 289.3 143C288.61 143 288 142.92 287.48 142.75C286.96 142.58 286.54 142.21 286.21 141.62C285.96 142.13 285.58 142.49 285.08 142.7C284.58 142.91 283.91 143 283.08 143H271.44C271.26 143 271.17 142.91 271.17 142.72V140.54C271.17 140.36 271.26 140.26 271.44 140.26H276.3V128.52C276.3 128.34 276.39 128.25 276.57 128.25H279.09C279.27 128.25 279.36 128.34 279.36 128.52V140.26H282.22C282.53 140.26 282.77 140.22 282.95 140.14C283.12 140.06 283.26 139.92 283.35 139.73C283.44 139.54 283.5 139.29 283.52 138.97C283.54 138.65 283.55 138.27 283.55 137.81V124.7L283.54 124.72Z" fill="#44BF00"/>
<path d="M289.33 143.01C288.97 143.01 288.72 142.92 288.58 142.73C288.44 142.54 288.38 142.21 288.38 141.71C288.38 141.16 288.44 140.78 288.57 140.58C288.7 140.38 288.95 140.28 289.33 140.28H292.61C292.97 140.28 293.25 140.38 293.43 140.58C293.61 140.78 293.7 141.13 293.7 141.63C293.7 142.2 293.61 142.57 293.44 142.75C293.27 142.93 292.99 143.01 292.61 143.01H289.33Z" fill="#44BF00"/>
<path d="M292.61 143.01C292.25 143.01 292 142.92 291.86 142.73C291.72 142.54 291.66 142.21 291.66 141.71C291.66 141.16 291.72 140.78 291.85 140.58C291.98 140.38 292.23 140.28 292.61 140.28H295.89C296.25 140.28 296.53 140.38 296.71 140.58C296.89 140.78 296.98 141.13 296.98 141.63C296.98 142.2 296.89 142.57 296.72 142.75C296.55 142.93 296.27 143.01 295.89 143.01H292.61Z" fill="#44BF00"/>
<path d="M295.88 143.01C295.52 143.01 295.27 142.92 295.13 142.73C294.99 142.54 294.93 142.21 294.93 141.71C294.93 141.16 294.99 140.78 295.12 140.58C295.25 140.38 295.5 140.28 295.88 140.28H299.16C299.52 140.28 299.8 140.38 299.98 140.58C300.16 140.78 300.25 141.13 300.25 141.63C300.25 142.2 300.16 142.57 299.99 142.75C299.82 142.93 299.54 143.01 299.16 143.01H295.88Z" fill="#44BF00"/>
<path d="M306.8 131.19C308.89 131.19 310.42 131.58 311.39 132.36C312.36 133.14 312.84 134.17 312.84 135.44C312.84 135.98 312.75 136.5 312.58 136.98C312.41 137.46 312.18 137.91 311.91 138.31C311.64 138.72 311.33 139.09 310.98 139.41C310.63 139.73 310.3 140.01 309.97 140.23C310.12 140.27 310.27 140.28 310.45 140.28H314.42C314.84 140.28 315.12 140.39 315.27 140.61C315.42 140.83 315.49 141.2 315.49 141.71C315.49 142.22 315.4 142.57 315.23 142.74C315.06 142.91 314.79 143 314.42 143H310.35C309.69 143 309.07 142.94 308.48 142.82C307.89 142.7 307.33 142.48 306.8 142.15C306.2 142.48 305.56 142.7 304.89 142.82C304.22 142.94 303.62 143 303.09 143H299.16C298.81 143 298.55 142.91 298.37 142.72C298.19 142.54 298.1 142.2 298.1 141.7C298.1 141.2 298.16 140.86 298.28 140.62C298.4 140.38 298.7 140.26 299.17 140.26H302.36C302.65 140.26 302.98 140.25 303.34 140.22C303.7 140.19 304.13 140.13 304.62 140.02C304.47 139.42 304.28 138.9 304.03 138.47C303.78 138.04 303.51 137.65 303.2 137.31C302.89 136.98 302.56 136.68 302.2 136.41C301.85 136.15 301.49 135.89 301.12 135.63C300.92 135.49 300.81 135.35 300.78 135.24C300.75 135.12 300.74 134.99 300.74 134.85V133.14C300.74 132.94 300.91 132.72 301.26 132.49C301.6 132.25 302.06 132.04 302.62 131.85C303.18 131.66 303.83 131.5 304.56 131.37C305.29 131.24 306.03 131.18 306.8 131.18V131.19ZM307.21 139.44C307.5 139.26 307.8 139.04 308.1 138.78C308.4 138.53 308.66 138.25 308.89 137.95C309.12 137.65 309.3 137.33 309.45 136.98C309.6 136.63 309.67 136.28 309.67 135.92C309.67 135.17 309.4 134.65 308.86 134.36C308.32 134.07 307.64 133.92 306.8 133.92C306.07 133.92 305.44 133.99 304.9 134.14C304.36 134.29 303.99 134.41 303.79 134.52C304.63 135.05 305.34 135.73 305.93 136.58C306.52 137.43 306.94 138.38 307.2 139.43L307.21 139.44Z" fill="#44BF00"/>
<path d="M314.42 143.01C314.06 143.01 313.81 142.92 313.67 142.73C313.53 142.54 313.47 142.21 313.47 141.71C313.47 141.16 313.53 140.78 313.66 140.58C313.79 140.38 314.04 140.28 314.42 140.28H317.7C318.06 140.28 318.34 140.38 318.52 140.58C318.7 140.78 318.79 141.13 318.79 141.63C318.79 142.2 318.7 142.57 318.53 142.75C318.36 142.93 318.08 143.01 317.7 143.01H314.42Z" fill="#44BF00"/>
<path d="M317.7 143.01C317.34 143.01 317.09 142.92 316.95 142.73C316.81 142.54 316.75 142.21 316.75 141.71C316.75 141.16 316.81 140.78 316.94 140.58C317.07 140.38 317.32 140.28 317.7 140.28H320.98C321.34 140.28 321.62 140.38 321.8 140.58C321.98 140.78 322.07 141.13 322.07 141.63C322.07 142.2 321.98 142.57 321.81 142.75C321.64 142.93 321.36 143.01 320.98 143.01H317.7Z" fill="#44BF00"/>
<path d="M320.97 143.01C320.61 143.01 320.36 142.92 320.22 142.73C320.08 142.54 320.02 142.21 320.02 141.71C320.02 141.16 320.08 140.78 320.21 140.58C320.34 140.38 320.59 140.28 320.97 140.28H324.25C324.61 140.28 324.89 140.38 325.07 140.58C325.25 140.78 325.34 141.13 325.34 141.63C325.34 142.2 325.25 142.57 325.08 142.75C324.91 142.93 324.63 143.01 324.25 143.01H320.97Z" fill="#44BF00"/>
<path d="M325.59 140.28C326.04 140.28 326.38 140.18 326.59 139.97C326.8 139.76 326.9 139.38 326.9 138.84V124.72C326.9 124.54 326.99 124.45 327.17 124.45H329.69C329.87 124.45 329.96 124.54 329.96 124.72V138.59C329.96 139.13 330.16 139.55 330.57 139.84C330.98 140.13 331.53 140.28 332.22 140.28H332.68C333.04 140.28 333.32 140.38 333.5 140.58C333.68 140.78 333.77 141.12 333.77 141.6C333.77 142.13 333.68 142.5 333.51 142.7C333.34 142.9 333.06 143 332.68 143C331.97 143 331.35 142.91 330.82 142.74C330.29 142.57 329.87 142.18 329.57 141.6C329.32 142.11 328.95 142.48 328.47 142.69C327.99 142.9 327.35 143.01 326.53 143.01H324.24C323.88 143.01 323.6 142.92 323.42 142.75C323.24 142.58 323.15 142.19 323.15 141.61C323.15 141.11 323.24 140.77 323.41 140.58C323.58 140.39 323.86 140.29 324.24 140.29H325.58L325.59 140.28Z" fill="#44BF00"/>
<path d="M332.71 143.01C332.35 143.01 332.07 142.92 331.89 142.75C331.71 142.58 331.62 142.22 331.62 141.69C331.62 141.16 331.71 140.81 331.88 140.6C332.05 140.39 332.33 140.28 332.71 140.28H334.05C334.5 140.28 334.84 140.18 335.05 139.97C335.26 139.76 335.36 139.38 335.36 138.84V124.72C335.36 124.54 335.45 124.45 335.63 124.45H338.15C338.33 124.45 338.42 124.54 338.42 124.72V139.57C338.42 140.75 338.18 141.62 337.69 142.18C337.2 142.74 336.39 143.01 335.25 143.01H332.71Z" fill="#44BF00"/>
<path d="M137.87 7.56996C137.87 7.38996 137.96 7.29996 138.14 7.29996H140.66C140.84 7.29996 140.93 7.38996 140.93 7.56996V14.21C140.93 14.75 141.13 15.17 141.54 15.46C141.95 15.75 142.5 15.9 143.19 15.9H143.65C144.01 15.9 144.29 16 144.47 16.2C144.65 16.4 144.74 16.74 144.74 17.22C144.74 17.75 144.65 18.12 144.48 18.32C144.31 18.52 144.03 18.62 143.65 18.62C143.03 18.62 142.5 18.56 142.05 18.45C141.6 18.34 141.23 18.09 140.92 17.71V18.23C140.92 19.21 140.84 20.08 140.68 20.81C140.52 21.55 140.25 22.16 139.88 22.66C139.51 23.15 139.02 23.52 138.4 23.77C137.78 24.02 137.02 24.14 136.11 24.14H135.1C134.92 24.14 134.83 24.05 134.83 23.87V21.69C134.83 21.51 134.92 21.42 135.1 21.42H135.7C136.23 21.42 136.64 21.33 136.93 21.15C137.22 20.97 137.43 20.7 137.57 20.34C137.71 19.99 137.79 19.56 137.82 19.06C137.85 18.56 137.86 17.98 137.86 17.33V7.56996H137.87ZM138.12 4.56996C137.94 4.56996 137.85 4.47996 137.85 4.28996V1.92996C137.85 1.74996 137.94 1.64996 138.12 1.64996H140.74C140.92 1.64996 141.01 1.73996 141.01 1.92996V4.29996C141.01 4.47996 140.92 4.57996 140.74 4.57996H138.12V4.56996Z" fill="#44BF00"/>
<path d="M143.69 18.63C143.33 18.63 143.08 18.54 142.94 18.35C142.8 18.17 142.74 17.83 142.74 17.33C142.74 16.78 142.8 16.4 142.93 16.2C143.06 16 143.31 15.9 143.69 15.9H146.97C147.33 15.9 147.61 16 147.79 16.2C147.97 16.4 148.06 16.75 148.06 17.25C148.06 17.82 147.97 18.19 147.8 18.37C147.63 18.54 147.35 18.63 146.97 18.63H143.69Z" fill="#44BF00"/>
<path d="M146.96 18.63C146.6 18.63 146.35 18.54 146.21 18.35C146.07 18.17 146.01 17.83 146.01 17.33C146.01 16.78 146.07 16.4 146.2 16.2C146.33 16 146.58 15.9 146.96 15.9H150.24C150.6 15.9 150.88 16 151.06 16.2C151.24 16.4 151.33 16.75 151.33 17.25C151.33 17.82 151.24 18.19 151.07 18.37C150.9 18.54 150.62 18.63 150.24 18.63H146.96Z" fill="#44BF00"/>
<path d="M150.24 18.63C149.88 18.63 149.63 18.54 149.49 18.35C149.35 18.17 149.29 17.83 149.29 17.33C149.29 16.78 149.35 16.4 149.48 16.2C149.61 16 149.86 15.9 150.24 15.9H153.52C153.88 15.9 154.16 16 154.34 16.2C154.52 16.4 154.61 16.75 154.61 17.25C154.61 17.82 154.52 18.19 154.35 18.37C154.18 18.54 153.9 18.63 153.52 18.63H150.24Z" fill="#44BF00"/>
<path d="M153.51 18.63C153.15 18.63 152.9 18.54 152.76 18.35C152.62 18.17 152.56 17.83 152.56 17.33C152.56 16.78 152.62 16.4 152.75 16.2C152.88 16 153.13 15.9 153.51 15.9H156.79C157.15 15.9 157.43 16 157.61 16.2C157.79 16.4 157.88 16.75 157.88 17.25C157.88 17.82 157.79 18.19 157.62 18.37C157.45 18.54 157.17 18.63 156.79 18.63H153.51Z" fill="#44BF00"/>
<path d="M162.39 7.15997C163.35 7.17997 164.24 7.24997 165.04 7.36997C165.84 7.48997 166.52 7.72997 167.08 8.07997C167.64 8.43997 168.07 8.94997 168.38 9.62997C168.69 10.31 168.84 11.2 168.84 12.31V13.95C168.84 14.86 168.76 15.62 168.6 16.21C168.44 16.8 168.19 17.28 167.87 17.65C167.55 18.02 167.13 18.27 166.62 18.42C166.12 18.57 165.52 18.64 164.83 18.64H156.8C156.44 18.64 156.16 18.53 155.98 18.32C155.8 18.11 155.71 17.74 155.71 17.2C155.71 16.66 155.8 16.32 155.97 16.15C156.14 15.98 156.42 15.9 156.8 15.9H163.57C164.06 15.9 164.45 15.86 164.74 15.79C165.03 15.72 165.25 15.6 165.41 15.44C165.56 15.28 165.66 15.06 165.71 14.79C165.76 14.52 165.78 14.17 165.78 13.76V12.29C165.78 11.47 165.56 10.87 165.11 10.48C164.66 10.09 163.96 9.89997 162.99 9.89997H158.59C158.41 9.89997 158.32 9.80997 158.32 9.61997V7.71997C158.32 7.58997 158.37 7.46997 158.48 7.35997C158.59 7.24997 158.68 7.14997 158.75 7.05997L164.65 0.119971C164.76 -0.0100285 164.88 -0.0300285 165 0.0399715L166.77 1.50997C166.91 1.61997 166.95 1.74997 166.88 1.88997L162.39 7.15997Z" fill="#44BF00"/>
<path d="M173.33 7.56999C173.33 7.38999 173.42 7.29999 173.6 7.29999H176.12C176.3 7.29999 176.39 7.38999 176.39 7.56999V14.21C176.39 14.75 176.59 15.17 177 15.46C177.41 15.75 177.96 15.9 178.65 15.9H179.11C179.47 15.9 179.75 16 179.93 16.2C180.11 16.4 180.2 16.74 180.2 17.22C180.2 17.75 180.11 18.12 179.94 18.32C179.77 18.52 179.49 18.62 179.11 18.62C178.49 18.62 177.96 18.56 177.51 18.45C177.06 18.34 176.69 18.09 176.38 17.71V18.23C176.38 19.21 176.3 20.08 176.14 20.81C175.98 21.55 175.71 22.16 175.34 22.66C174.97 23.15 174.48 23.52 173.86 23.77C173.24 24.02 172.48 24.14 171.57 24.14H170.56C170.38 24.14 170.29 24.05 170.29 23.87V21.69C170.29 21.51 170.38 21.42 170.56 21.42H171.16C171.69 21.42 172.1 21.33 172.39 21.15C172.68 20.97 172.89 20.7 173.03 20.34C173.17 19.99 173.25 19.56 173.28 19.06C173.31 18.56 173.32 17.98 173.32 17.33V7.56999H173.33Z" fill="#44BF00"/>
<path d="M179.15 18.63C178.79 18.63 178.54 18.54 178.4 18.35C178.26 18.17 178.2 17.83 178.2 17.33C178.2 16.78 178.26 16.4 178.39 16.2C178.52 16 178.77 15.9 179.15 15.9H182.43C182.79 15.9 183.07 16 183.25 16.2C183.43 16.4 183.52 16.75 183.52 17.25C183.52 17.82 183.43 18.19 183.26 18.37C183.09 18.54 182.81 18.63 182.43 18.63H179.15Z" fill="#44BF00"/>
<path d="M182.43 18.63C182.07 18.63 181.82 18.54 181.68 18.35C181.54 18.17 181.48 17.83 181.48 17.33C181.48 16.78 181.54 16.4 181.67 16.2C181.8 16 182.05 15.9 182.43 15.9H185.71C186.07 15.9 186.35 16 186.53 16.2C186.71 16.4 186.8 16.75 186.8 17.25C186.8 17.82 186.71 18.19 186.54 18.37C186.37 18.54 186.09 18.63 185.71 18.63H182.43Z" fill="#44BF00"/>
<path d="M185.7 18.63C185.34 18.63 185.09 18.54 184.95 18.35C184.81 18.17 184.75 17.83 184.75 17.33C184.75 16.78 184.81 16.4 184.94 16.2C185.07 16 185.32 15.9 185.7 15.9H188.98C189.34 15.9 189.62 16 189.8 16.2C189.98 16.4 190.07 16.75 190.07 17.25C190.07 17.82 189.98 18.19 189.81 18.37C189.64 18.54 189.36 18.63 188.98 18.63H185.7Z" fill="#44BF00"/>
<path d="M188.98 18.63C188.62 18.63 188.37 18.54 188.23 18.35C188.09 18.17 188.03 17.83 188.03 17.33C188.03 16.78 188.09 16.4 188.22 16.2C188.35 16 188.6 15.9 188.98 15.9H192.26C192.62 15.9 192.9 16 193.08 16.2C193.26 16.4 193.35 16.75 193.35 17.25C193.35 17.82 193.26 18.19 193.09 18.37C192.92 18.54 192.64 18.63 192.26 18.63H188.98Z" fill="#44BF00"/>
<path d="M200.63 18.82C199.72 18.82 198.9 18.7 198.17 18.45C197.44 18.2 196.83 17.79 196.34 17.22C196.16 17.51 195.94 17.75 195.68 17.94C195.42 18.12 195.16 18.27 194.88 18.37C194.61 18.47 194.32 18.54 194.03 18.58C193.74 18.62 193.47 18.64 193.21 18.64H192.25C191.89 18.64 191.61 18.53 191.43 18.32C191.25 18.11 191.16 17.75 191.16 17.26C191.16 16.73 191.25 16.37 191.42 16.18C191.59 16 191.87 15.9 192.25 15.9H193.31C193.51 15.9 193.71 15.86 193.91 15.78C194.11 15.7 194.29 15.56 194.46 15.37C194.62 15.18 194.76 14.93 194.87 14.61C194.98 14.29 195.03 13.9 195.03 13.43C195.01 13.28 195 13.15 195 13.02V12.61C195.02 11.56 195.17 10.66 195.45 9.93C195.73 9.2 196.13 8.6 196.63 8.13C197.13 7.67 197.72 7.33 198.4 7.12C199.08 6.91 199.81 6.81 200.62 6.81C201.43 6.81 202.17 6.92 202.86 7.14C203.55 7.36 204.15 7.7 204.65 8.18C205.15 8.65 205.54 9.28 205.83 10.06C206.11 10.84 206.25 11.79 206.25 12.9C206.25 14.01 206.11 14.88 205.84 15.63C205.57 16.38 205.18 16.99 204.69 17.46C204.2 17.93 203.61 18.28 202.91 18.5C202.22 18.72 201.45 18.83 200.61 18.83L200.63 18.82ZM200.62 9.54C199.75 9.54 199.11 9.82 198.69 10.38C198.27 10.94 198.07 11.76 198.07 12.83C198.07 13.99 198.28 14.82 198.69 15.33C199.11 15.84 199.75 16.09 200.62 16.09C201.49 16.09 202.16 15.83 202.58 15.32C203 14.8 203.2 13.97 203.2 12.83C203.2 10.64 202.34 9.54 200.62 9.54Z" fill="#44BF00"/>
</g>
<defs>
<clipPath id="clip0_231_3960">
<rect width="500" height="152.34" fill="white"/>
</clipPath>
</defs>
</svg>
